<svg width="986" height="74" viewBox="0 0 986 74" fill="none" xmlns="http://www.w3.org/2000/svg">
<path d="M49.665 62.4136C60.5872 62.3911 71.6085 62.0235 82.5195 62.4286C92.196 62.5261 100.787 62.9087 109.976 66.3746C103.369 69.2553 97.1145 70.3805 90.0232 71.1982L81.756 71.7309C63.6607 73.2087 44.8192 72.3685 26.679 71.6558C17.3602 70.8681 8.6775 70.6805 0 66.7721C7.224 64.5815 14.1735 62.8937 21.7642 62.5111L49.665 62.4136Z" fill="#D2D955"/>
<path d="M75.1982 0.479037C88.1087 0.464033 137.956 -1.95905 146.921 4.23746L146.961 5.4153C140.753 10.194 124.453 8.94868 116.435 9.18123L103.175 9.51878C91.2444 9.15869 79.0884 10.5615 67.2437 9.88636C67.2129 8.87362 67.1087 7.99593 66.8807 7.01319L61.4919 3.80239L61.6352 2.81219L64.2969 1.50678C67.8722 0.764103 71.5599 0.681586 75.1982 0.479037Z" fill="#D2D955"/>
<path d="M865.15 62.1591C891.835 60.5537 918.34 60.4862 945.07 60.6962C957.048 61.3039 974.08 60.0061 984.55 66.3451L985.142 67.3729C981.587 71.4914 972.565 71.4164 967.308 71.7839C960.835 72.2491 954.1 71.994 947.688 72.7442C922.893 73.862 888.707 73.8919 864.047 71.1838C857.875 70.2985 852.205 69.1208 846.438 66.6452C852.475 64.0946 858.677 62.9693 865.15 62.1591Z" fill="#D2D955"/>
</svg>
