<svg width="553" height="121" viewBox="0 0 553 121" fill="none" xmlns="http://www.w3.org/2000/svg">
<path d="M542.316 5C548.316 5 546.616 8.3 543.816 9.5C540.316 11 523.737 9.4393 520.316 14C517.316 18 545.316 17.5 546.316 21.5C547.316 25.5 388.816 15.6476 388.816 21.5C388.816 38.5 539.816 20.4914 539.816 35C539.816 40 456.816 36.5 456.816 43C456.816 49.5 516.276 56 543.816 56C563.816 56 545.816 71.5 539.816 73C518.958 78.2145 451.316 54.5609 451.316 73C451.316 81 499.816 69 502.816 86C505.816 103 425.316 74.5 429.316 91C433.316 107.5 478.316 91 496.816 107C511.616 119.8 327.316 121 308.316 120H248.316C201.316 118.333 102.916 114.3 85.3164 111.5C67.7164 108.7 75.6497 103.667 81.8164 101.5C99.3164 101 179.616 93.2 186.816 86C194.016 78.8 125.316 84.6667 111.816 86C91.9831 85.1667 46.3163 82.6 22.3164 79C-1.68332 75.4 20.6498 67.8333 34.8164 64.5C55.8164 64.5 102.016 63.2 118.816 58C135.616 52.8 118.15 48.5 107.316 47C94.3164 48.8333 64.5164 50.6 49.3164 43C34.1164 35.4 47.9831 32.8333 56.8164 32.5C83.1497 34.5 153.716 32.2 163.316 25C175.316 16 139.316 22.5 121.316 19C103.316 15.5 28.8164 14.5 6.81641 10.5C-10.7833 7.30001 9.81642 2.16667 22.3164 0L542.316 5ZM386.999 96.7061C375.249 96.2946 343.954 94.5213 335.316 98.8691L335.517 100.175C338.478 101.863 341.417 102.097 345.264 102.586C357.429 104.317 373.552 104.353 385.858 103.268C389.633 102.934 393.9 102.53 396.316 100.601L395.654 99.082C393.038 97.4933 390.464 97.2026 386.999 96.7061ZM355.089 80.0352C349.599 75.4366 329.707 77.312 322.238 77.7471C320.036 78.2722 318.4 78.5795 316.737 80.2598L316.316 81.8652C317.852 83.9057 320.565 84.3339 322.964 84.6865C330.786 85.8343 341.034 85.7962 348.767 83.9658C351.212 83.4482 353.079 83.2005 354.962 81.415L355.089 80.0352ZM212.014 38.3135C204.4 35.5229 172.023 34.9675 164.94 38.2607C164.802 38.3208 164.669 38.3964 164.532 38.4639L164.316 39.5586C169.312 43.1819 177.948 43.2048 183.854 42.3271C191.412 43.0698 200.441 43.467 207.964 42.3643C210.086 42.0567 211.122 41.7118 212.427 39.9863L212.014 38.3135Z" fill="#CADB59"/>
</svg>
