<svg width="1252" height="1258" viewBox="0 0 1252 1258" fill="none" xmlns="http://www.w3.org/2000/svg">
<path d="M367.5 112.5C348.833 146.167 297.2 220 260 202C213.5 179.5 143 109.5 117 63" stroke="#014E4A" stroke-width="20"/>
<path d="M765.37 138.255C768.313 149.834 746.207 207.897 742.706 227.656C756.616 232.255 760.339 234.249 774.201 229.075C768.902 245.802 762.249 257.264 754.003 271.304C752.669 273.574 752.951 275.746 753.156 278.34C757.579 286.701 767.406 287.45 774.167 289.681C773.519 290.077 772.871 290.476 772.223 290.872C761.577 317.425 752.967 345.488 743.431 372.768C738.925 385.657 732.926 398.396 728.858 411.396C724.452 424.876 718.655 438.039 713.309 450.944L712.9 451.085C707.473 443.119 688.962 383.717 686.806 371.597C679.295 366.942 671.603 362.042 664.399 356.358C673.216 344.434 689.735 310.775 701.466 278.682C705.214 269.556 709.322 256.571 714.73 238.413C720.121 220.315 724.248 194.793 727.769 156.113C728.077 152.724 728.373 149.237 728.657 145.667C730.289 147.115 732.337 148.242 734.872 148.977C747.237 152.559 754.891 145.884 765.37 138.255ZM659.024 351.876C660.777 353.427 662.573 354.917 664.399 356.358C659.466 363.03 656.947 362.898 659.024 351.876ZM569.582 0C568.143 2.23916 566.735 4.46386 565.35 6.70117C561.068 12.318 556.05 18.944 550.347 26.5352C533.998 48.2964 523.742 70.5062 515.624 89.043C509.768 102.415 506.859 114.637 505.2 128.768C503.875 140.059 503.347 152.57 502.75 167.861C502.549 172.995 502.387 178.858 502.254 185.181C494.524 179.267 487.461 171.879 481.294 163.237C479.939 160.214 475.842 153.993 471.865 147.526C455.825 151.537 442.274 154.377 442.531 151.054C433.728 154.845 430.822 152.135 425.964 153.935L425.145 152.189C424.443 140.034 428.448 126.213 432.334 115.373C417.388 134.883 404.301 137.913 383.813 134.628C384.135 115.087 391.096 95.5166 395.912 76.8076C380.975 97.4322 358.154 111.202 337.388 117.719C332.496 119.254 324.326 117.064 318.37 118.809C315.743 118.65 312.701 118.08 310.048 117.683L309.364 113.416C304.059 110.639 296.868 117.177 292.044 120.655C285.209 123.543 266.107 132.25 261.147 122.456C260.049 106.598 279.152 67.1469 285.514 52.8877C271.59 64.2434 258.824 81.6387 244.148 90.332C214.916 107.648 232.65 62.8208 237.669 47.8408C227.167 57.6324 198.036 85.8037 185.025 66.1758C180.894 59.935 182.406 48.6443 183.209 40.6582C171.313 56.5298 162.163 69.9362 149.245 84.3721C143.88 89.6933 137.772 95.9733 131.419 98.79C114.065 104.585 98.9927 107.006 84.5371 89.7959C100.978 78.3476 102.71 73.8496 112.012 52.5967C95.5541 67.8722 91.6926 69.7759 71.9482 65.665C71.6186 65.256 68.0058 60.7099 67.9189 60.6338C67.1839 60.0528 65.5866 60.973 63.9307 58.999C67.665 53.1424 73.7228 37.3452 76.3926 30.2471C69.5999 36.3988 57.7465 47.331 49.6611 48.0977C25.8022 50.3596 2.62753 34.0788 0 0H569.582ZM736.179 77.6299C735.615 81.3073 733.773 86.8576 731.646 93.2812C731.811 88.7876 731.953 84.2787 732.071 79.7764C733.572 79.0449 734.952 78.3208 736.179 77.6299Z" fill="#025545"/>
<path d="M378.799 223.731L378.8 223.732C385.831 217.448 392.962 209.356 399.062 202.192C396.943 185.454 396.077 169.721 394.482 153.042C389.06 152.363 384.26 150.786 379.037 149.251V149.25C384.26 150.785 389.06 152.362 394.482 153.041C392.288 132.68 391.181 118.566 390.959 98.0557C387.027 96.9003 382.716 95.2422 378.82 93.8389C370.298 89.8571 358.979 84.9574 351.371 79.8926C359.57 98.7029 362.945 108.156 366.907 128.438L366.192 129.979C357.2 132.467 348.125 125.95 339.658 125.212C338.985 125.05 338.278 124.865 337.546 124.658C336.082 124.245 334.516 123.748 332.906 123.184C332.638 123.09 332.368 122.994 332.098 122.896C331.441 122.659 330.78 122.41 330.117 122.153C329.687 121.987 329.256 121.817 328.826 121.643C328.547 121.53 328.268 121.416 327.99 121.3C326.904 120.848 325.826 120.373 324.771 119.882C323.712 119.388 322.676 118.877 321.683 118.354C321.435 118.224 321.189 118.093 320.946 117.961C319.004 116.904 317.247 115.804 315.815 114.701V0H1252C1247.32 13.6094 1238.56 22.2127 1226.07 28.835C1211.8 34.5534 1200.41 36.1324 1185.03 33.8711C1193.16 38.7438 1216.43 51.874 1206.73 63.002C1193.61 78.0725 1161.38 69.0741 1147.35 63.1807C1147.39 63.3621 1147.43 63.5488 1147.48 63.7412C1147.43 63.5484 1147.39 63.3614 1147.35 63.1797C1126 50.5408 1117.14 40.0729 1098.61 27.0176C1102.71 32.8338 1123.54 62.1875 1121.74 68.623C1117.71 70.6228 1111.99 70.283 1107.57 70.1104C1092.18 69.5102 1082.66 56.7371 1072.65 46.4355C1073.94 55.7533 1075.57 66.0131 1076.4 75.3027C1041.74 69.3048 1035.59 54.5305 1005.97 39.916C1013.91 51.1868 1021.94 62.6213 1029.49 74.1973C1034.06 81.208 1037.42 87.5364 1028.26 92.6445C1011.19 102.376 987.51 88.5979 973.525 78.5811C977.848 87.3222 985.192 100.249 983.634 110.029L982.213 111.904C971.01 113.395 952.182 86.0532 946.046 77.6914C951.278 98.0708 956.11 114.294 970.066 130.805C978.337 140.588 1011.09 157.113 1004.19 170.579C1000.54 173.014 998.2 172.453 994.073 172.728C979.775 173.682 968.513 167.151 958.401 157.396C961.334 172.062 966.808 182.366 972.686 195.818C973.444 197.553 972.49 198.574 971.726 200.109C960.028 208.866 921.936 186.351 913.758 175.215C912.969 174.143 912.232 173.036 911.548 171.895C910.629 185.398 908.709 199.925 906.984 213.714L906.261 219.574C903.911 245.12 898.131 271.51 890.951 296.349C879.937 334.454 853.599 374.066 823.619 320.534C796.914 272.849 799.822 212.377 785.669 160.729C785.559 160.523 785.449 160.315 785.339 160.108L782.438 166.725C775.76 172.644 771.722 177.851 764.476 183.996C764.33 173.999 766.192 148.395 764.966 141.59C760.206 149.274 750.485 161.647 742.82 166.166C720.469 151.92 715.114 128.283 703.937 107.808C704.005 124.157 703.154 142.369 702.707 158.88C702.638 161.451 701.679 162.207 700.055 163.573C691.302 165.322 674.662 153.215 667.533 147.6C664.332 145.079 660.871 140.586 657.064 139.312C656.801 134.842 657.547 123.313 657.725 118.52C658.295 105.484 658.627 92.4391 658.718 79.3916C647.183 92.4798 644.632 101.275 641.288 118.057C639.147 116.775 637.015 115.09 634.625 115.162C633.24 118.584 630.791 150.182 630.2 155.731C617.826 146.207 615.474 144.198 609.259 129.919C609.398 137.704 609.795 154.145 608.685 161.725C605.649 182.449 603.105 198.575 602.011 219.765C594.167 201.621 591.57 179.906 589.22 160.491C588.795 156.982 587.475 154.376 585.937 151.202C583.824 145.119 573.083 130.94 569.076 124.098C564.753 116.713 559.904 107.456 555.481 100.479C555.646 111.81 556.399 128.754 555.584 139.653C554.761 169.546 552.699 196.358 552.653 226.532L552.655 224.738C552.755 195.067 554.773 168.581 555.585 139.098C528.211 133.104 508.157 122.047 491.937 98.3076C493.6 112.093 494.171 126.622 494.78 140.525C477.064 135.323 475.239 130.088 466.042 114.182C463.435 120.951 460.021 129.092 458.165 136.064L457.99 136.735L457.398 138.019C450.611 151.889 442.003 170.272 433.751 182.891C442.06 200.335 449.358 214.676 463.718 228.092L464.811 229.081C476.482 239.447 499.774 253.909 514.463 254.861C523.58 257.026 529.688 257.541 536.396 257.063C536.553 257.052 536.71 257.042 536.868 257.029C540.962 256.711 545.309 256.031 550.718 255.136C550.718 255.322 550.719 255.508 550.721 255.691C550.393 263.16 550.208 270.885 549.279 278.284C548.489 287.102 547.712 295.77 546.935 304.357C547.712 295.77 548.489 287.102 549.279 278.283C548.178 278.552 547.106 278.799 546.056 279.026C545.53 279.14 545.011 279.248 544.495 279.352C542.433 279.765 540.44 280.099 538.452 280.359C537.955 280.424 537.458 280.485 536.961 280.541C534.972 280.765 532.973 280.918 530.899 281.007C529.863 281.051 528.807 281.081 527.726 281.094C526.644 281.107 525.535 281.105 524.393 281.089C520.129 280.593 516.162 280.046 512.422 279.407C512.048 279.343 511.676 279.278 511.306 279.212C510.626 279.091 509.954 278.966 509.288 278.838C508.868 278.757 508.451 278.676 508.037 278.593C507.199 278.424 506.373 278.249 505.556 278.067C504.981 277.94 504.41 277.81 503.845 277.676C502.134 277.27 500.465 276.832 498.831 276.358C491.314 274.18 484.519 271.237 477.599 267.031C476.395 266.3 475.188 265.53 473.973 264.72C472.149 263.504 470.307 262.198 468.432 260.79C467.181 259.852 465.916 258.869 464.632 257.839C464.31 257.581 463.988 257.32 463.664 257.057C462.693 256.266 461.711 255.449 460.715 254.604C459.436 253.377 458.22 252.221 457.046 251.09C456.165 250.242 455.308 249.408 454.466 248.568C453.343 247.449 452.247 246.32 451.156 245.136C450.884 244.84 450.612 244.54 450.34 244.236C449.897 243.742 449.456 243.236 449.012 242.717C448.364 241.959 447.713 241.173 447.056 240.346C446.952 241.95 446.843 243.594 446.729 245.272C446.502 248.629 446.254 252.123 445.978 255.713C444.18 279.049 441.2 306.43 435.212 326.334C435.13 324.837 435.064 323.315 435.008 321.771C434.964 320.56 434.927 319.336 434.897 318.1C434.88 317.386 434.866 316.668 434.854 315.947C434.829 314.522 434.812 313.083 434.803 311.632C434.798 310.906 434.795 310.178 434.794 309.447C434.787 305.062 434.84 300.582 434.925 296.075C434.981 293.07 435.052 290.053 435.128 287.043C435.393 276.507 435.722 266.057 435.746 256.528C435.747 255.988 435.75 255.457 435.752 254.937C435.852 225.379 436.436 227.272 422.327 200.342L414.522 213.407C414.646 217.093 414.855 221.214 415.141 225.657C415.355 228.989 415.612 232.503 415.91 236.151C416.109 238.584 416.326 241.076 416.561 243.614C419.252 272.799 424.211 308.036 430.114 328.064C431.706 335.129 433.771 343.203 436.148 351.181C436.297 351.679 436.447 352.177 436.598 352.675C437.504 355.66 438.451 358.622 439.434 361.503C439.925 362.943 440.425 364.363 440.932 365.755C441.608 367.612 442.297 369.419 442.997 371.16C443.172 371.595 443.348 372.026 443.524 372.452C443.701 372.879 443.877 373.301 444.055 373.719C445.045 375.709 446.044 377.665 447.062 379.58C456.906 398.092 468.521 412.765 490.953 416.981C511.399 414.615 520.855 409.296 537.563 398.032L538.229 392V392.001L537.563 398.033C536.608 404.67 535.117 418.787 533.792 424.524C518.626 432.131 509.476 435.894 492.039 437.217C479.284 436.677 470.953 434.106 459.964 427.624C444.976 414.38 437.337 404.35 428.747 386.246C411.789 344.092 403.41 277.509 401.231 231.6C393.177 239.078 384.622 245.997 375.626 252.31C360.454 259.577 353.521 262.106 336.307 261.93C328.598 260.595 322.775 258.032 315.815 254.816V234.851C317.32 235.444 318.711 235.986 320.037 236.486C325.783 238.653 330.295 240.018 337.394 241.206L338.208 241.197C355.193 240.939 365.869 235.154 378.799 223.731ZM875.907 150.02C886.418 186.033 869.638 182.357 846.867 164.719C848.361 175.611 850.432 184.879 854.346 195.188C854.493 195.487 854.646 195.792 854.805 196.104C854.955 202.768 857.087 211.213 853.486 215.367C842.461 218.318 819.529 192.978 812.588 184.907C815.782 217.255 822.899 302.809 853.779 320.748C863.186 317.892 868.994 306.963 873.247 298.878C883.759 278.378 886.171 258.613 889.337 236.187C889.237 236.145 889.138 236.099 889.037 236.055C892.176 216.834 895.497 183.036 894.896 164.143C887.874 159.365 882.246 155.697 875.907 150.02ZM968.795 270.422C968.457 270.346 968.121 270.269 967.787 270.19C968.12 270.268 968.456 270.346 968.794 270.421C968.781 270.106 968.765 269.786 968.747 269.461C968.765 269.786 968.782 270.107 968.795 270.422ZM968.677 268.369C968.678 268.391 968.679 268.413 968.681 268.435C968.676 268.375 968.672 268.315 968.668 268.255L968.677 268.369ZM1012.38 262.964C1012.3 262.993 1012.21 263.021 1012.12 263.048C1012.31 262.991 1012.49 262.928 1012.67 262.859C1012.58 262.895 1012.48 262.931 1012.38 262.964ZM1013.03 262.719C1013.01 262.725 1013 262.73 1012.98 262.736C1013.01 262.725 1013.04 262.715 1013.06 262.703C1013.05 262.708 1013.04 262.714 1013.03 262.719ZM1014.78 260.58C1014.5 261.138 1014.22 261.697 1013.95 262.255C1013.82 262.329 1013.69 262.397 1013.56 262.464C1013.69 262.397 1013.82 262.328 1013.95 262.254C1014.22 261.696 1014.5 261.138 1014.78 260.58C1014.52 259.91 1014.23 259.168 1013.9 258.361C1014.23 259.168 1014.52 259.91 1014.78 260.58ZM937.619 256.082C937.58 256.051 937.54 256.021 937.501 255.99L936.753 255.39C937.04 255.623 937.329 255.853 937.619 256.082ZM552.651 228.176C552.427 236.716 550.785 246.764 550.72 254.597C550.711 248.794 551.63 241.692 552.212 234.867C552.271 234.174 552.327 233.483 552.378 232.797C552.509 231.032 552.608 229.297 552.652 227.62L552.653 227.134C552.653 227.481 552.651 227.828 552.651 228.176ZM930.621 249.898C930.494 249.774 930.365 249.652 930.238 249.526L929.533 248.822C929.894 249.186 930.258 249.543 930.621 249.898ZM1007.61 242.647L1006.89 240.816C1006.83 240.66 1006.77 240.503 1006.71 240.346C1007.01 241.118 1007.31 241.887 1007.61 242.647ZM1065.18 238.811C1063.89 238.835 1062.67 238.85 1061.5 238.855H1061.5C1062.67 238.85 1063.89 238.834 1065.18 238.81L1058.23 217.127L1065.18 238.811ZM1005.7 237.708C1005.63 237.506 1005.55 237.305 1005.47 237.103L1004.78 235.233C1005.08 236.059 1005.39 236.884 1005.7 237.708ZM1042.88 237.044C1043.55 237.222 1044.22 237.383 1044.89 237.532C1044.59 237.465 1044.29 237.399 1043.99 237.326L1042.88 237.044ZM1106.91 235.526C1106.57 235.603 1106.24 235.681 1105.91 235.762L1104.41 236.291L1105.91 235.762C1106.24 235.681 1106.57 235.603 1106.91 235.526ZM916.226 233.46C916.657 234.007 917.085 234.549 917.513 235.084C917.085 234.549 916.657 234.008 916.226 233.461C916.058 233.248 915.89 233.028 915.719 232.804C915.889 233.028 916.058 233.247 916.226 233.46ZM961.022 232.377C961.236 233.019 961.452 233.688 961.669 234.379H961.668C961.56 234.033 961.451 233.693 961.344 233.359C961.236 233.025 961.128 232.697 961.021 232.376L961.022 232.377ZM1126.76 228.808C1126.72 228.844 1126.68 228.878 1126.63 228.914C1126.7 228.859 1126.76 228.804 1126.83 228.748C1126.81 228.768 1126.78 228.788 1126.76 228.808ZM1127.05 228.552C1127.03 228.572 1127 228.59 1126.98 228.61C1127.04 228.558 1127.09 228.505 1127.15 228.452C1127.11 228.485 1127.08 228.519 1127.05 228.552ZM1068.61 226.061C1069.04 226.38 1069.46 226.69 1069.88 226.99C1069.67 226.84 1069.46 226.688 1069.25 226.533L1068.61 226.061ZM378.688 223.201C378.67 223.114 378.654 223.024 378.638 222.934C378.654 223.024 378.67 223.114 378.688 223.201ZM378.587 222.658C378.567 222.541 378.548 222.421 378.528 222.299C378.548 222.421 378.567 222.541 378.587 222.658ZM378.477 221.966C378.465 221.887 378.454 221.807 378.442 221.727C378.454 221.807 378.465 221.887 378.477 221.966ZM378.383 221.296C378.37 221.2 378.358 221.104 378.346 221.006C378.358 221.104 378.37 221.2 378.383 221.296ZM378.305 220.675C378.289 220.542 378.274 220.407 378.259 220.271C378.274 220.407 378.289 220.542 378.305 220.675ZM378.108 218.73C378.139 219.086 378.172 219.431 378.206 219.765C378.144 219.155 378.086 218.509 378.034 217.829L378.108 218.73ZM377.778 213.292C377.755 212.722 377.734 212.139 377.715 211.542C377.734 212.139 377.755 212.722 377.778 213.292ZM377.691 210.744C377.68 210.359 377.668 209.97 377.658 209.575C377.668 209.97 377.68 210.359 377.691 210.744ZM377.645 208.961C377.633 208.454 377.624 207.939 377.615 207.417C377.624 207.939 377.633 208.454 377.645 208.961ZM377.605 206.811C377.598 206.334 377.592 205.852 377.587 205.365C377.592 205.852 377.598 206.334 377.605 206.811ZM377.571 197.982C377.559 200.282 377.561 202.522 377.58 204.671C377.561 202.522 377.559 200.282 377.571 197.982ZM488.521 197.488L489.037 198.464C488.861 198.133 488.688 197.808 488.521 197.488L488.032 196.548C488.191 196.855 488.354 197.169 488.521 197.488ZM377.6 194.56C377.602 194.345 377.605 194.131 377.607 193.916C377.605 194.131 377.602 194.345 377.6 194.56ZM377.859 181.105C377.777 184.247 377.706 187.428 377.654 190.569C377.702 187.623 377.766 184.643 377.843 181.692L377.859 181.105ZM1118.45 188.862C1119.07 188.902 1119.69 188.923 1120.29 188.929C1119.99 188.926 1119.69 188.92 1119.39 188.909L1118.45 188.862ZM1124.84 188.666C1124.79 188.672 1124.75 188.675 1124.7 188.681C1124.78 188.672 1124.85 188.663 1124.93 188.653L1124.84 188.666ZM1106.51 186.611C1106.3 186.554 1106.09 186.497 1105.87 186.438L1106.42 187.701C1106.24 187.284 1106.05 186.862 1105.87 186.437C1106.09 186.496 1106.3 186.554 1106.51 186.611ZM1131.63 187.395C1131.58 187.407 1131.53 187.418 1131.48 187.43C1131.62 187.397 1131.76 187.364 1131.91 187.33C1131.82 187.351 1131.73 187.374 1131.63 187.395ZM1132.72 187.139C1132.45 187.204 1132.17 187.268 1131.91 187.33C1132.66 187.154 1133.44 186.966 1134.25 186.767C1133.73 186.895 1133.22 187.02 1132.72 187.139ZM410.786 166.21C410.898 170.385 410.626 180.111 413.201 183.079L413.499 182.547C415.062 179.186 415.849 176.819 414.484 173.165C413.56 170.693 412.21 168.421 410.786 166.21ZM378.565 160.364L378.375 165.211C378.529 161.132 378.683 157.437 378.814 154.376C378.738 156.171 378.653 158.184 378.565 160.364ZM404.696 83.6211C405.471 92.2053 405.943 98.0365 408.314 106.286C409.586 110.71 412.752 119.187 413.424 123.153C414.874 136.298 420.286 150.023 424.798 162.481C436.265 141.112 442.766 127.907 451.907 105.63L444.008 97.0273C444.814 102.309 446.62 108.476 443.175 113.01C421.625 113.202 414.82 100.761 404.696 83.6211ZM1142.8 122.031C1142.68 122.036 1142.56 122.039 1142.43 122.042C1142.64 122.036 1142.84 122.028 1143.04 122.019C1142.96 122.022 1142.88 122.028 1142.8 122.031ZM1143.37 122.003C1143.29 122.008 1143.21 122.011 1143.13 122.015C1143.31 122.005 1143.49 121.994 1143.68 121.981C1143.58 121.989 1143.47 121.997 1143.37 122.003ZM1148.78 121.247L1148.15 121.378C1148.36 121.336 1148.56 121.293 1148.78 121.247C1148.79 121.243 1148.81 121.239 1148.83 121.235C1148.81 121.239 1148.79 121.244 1148.78 121.247ZM1150.67 120.764C1150.48 120.821 1150.28 120.875 1150.08 120.929C1150.46 120.826 1150.83 120.718 1151.19 120.603C1151.02 120.657 1150.85 120.712 1150.67 120.764ZM1151.27 120.579C1151.24 120.587 1151.21 120.594 1151.19 120.603C1151.25 120.582 1151.31 120.562 1151.38 120.541C1151.34 120.553 1151.3 120.567 1151.27 120.579ZM1125.85 118.017C1125.76 117.972 1125.66 117.929 1125.57 117.884L1124.6 117.407C1125.02 117.616 1125.44 117.818 1125.85 118.017ZM1123.63 116.914L1122.65 116.404C1122.6 116.378 1122.55 116.351 1122.5 116.324C1122.88 116.524 1123.25 116.721 1123.63 116.914ZM1115.51 112.521C1117.19 113.435 1118.81 114.33 1120.38 115.187C1118.81 114.33 1117.19 113.435 1115.51 112.521C1115.48 112.595 1115.46 112.671 1115.44 112.749L1115.38 112.99C1115.41 112.825 1115.46 112.668 1115.51 112.521ZM1161.4 108.578L1161.34 109.058C1161.37 108.85 1161.39 108.64 1161.41 108.429C1161.41 108.479 1161.41 108.528 1161.4 108.578ZM1161.49 107.603C1161.49 107.629 1161.48 107.656 1161.48 107.683C1161.5 107.492 1161.51 107.3 1161.52 107.106L1161.49 107.603ZM1161.31 102.434C1161.32 102.511 1161.33 102.589 1161.34 102.666C1161.32 102.529 1161.31 102.391 1161.29 102.253C1161.3 102.313 1161.31 102.373 1161.31 102.434ZM1161.24 101.895C1161.25 101.925 1161.25 101.956 1161.25 101.986C1161.23 101.84 1161.21 101.693 1161.19 101.546C1161.21 101.662 1161.23 101.779 1161.24 101.895ZM855.115 59.0645C858.922 71.9895 873.683 94.7755 885.722 101.392C885.924 101.503 886.14 101.591 886.349 101.69C887.623 91.7219 887.513 81.1444 881.035 72.8408C875.077 65.2028 864.203 61.4135 855.115 59.0645ZM1158.13 90.041C1158.35 90.6419 1158.55 91.2431 1158.75 91.8438C1158.55 91.2355 1158.34 90.627 1158.12 90.0186L1158.13 90.041ZM1155.46 83.2041L1155.93 84.3291C1155.73 83.8469 1155.53 83.367 1155.33 82.8896L1155.46 83.2041ZM1148.97 68.1865C1149.29 68.9898 1149.64 69.8348 1150.01 70.7158C1149.64 69.8344 1149.29 68.9892 1148.97 68.1855L1148.97 68.1865Z" fill="url(#paint0_linear_80_2303)"/>
<path d="M1098.61 27.0176C1117.14 40.0731 1126 50.5409 1147.35 63.18C1149.93 75.7387 1177.04 115.139 1148.78 121.247C1135.29 124.163 1126.94 118.73 1115.51 112.521C1112.3 121.944 1136.41 169.2 1140.23 185.282C1125.06 189.024 1120.99 190.648 1105.87 186.437C1111.65 200.05 1118.91 209.379 1127.91 220.805C1129.36 222.653 1129.05 224.42 1128.83 226.532C1124 233.337 1113.29 233.946 1105.91 235.762L1104.41 236.291C1082.43 235.846 1074.57 232.473 1058.23 217.127L1065.18 238.81C1044.55 239.205 1040.68 237.251 1022.18 228.177C1015.55 223.831 1006.68 216.467 1000.78 211.183L999.038 209.596L998.055 210.125C997.811 220.525 1010.65 249.862 1014.78 260.58C1014.5 261.138 1014.22 261.696 1013.95 262.254C1001.32 269.703 969.939 240.812 961.022 232.376C964.442 242.66 968.365 259.57 968.794 270.421C944.185 264.934 931.519 252.863 916.226 233.46C913.055 229.438 909.294 223.168 906.261 219.574C908.14 204.096 910.498 187.327 911.548 171.894C912.232 173.036 912.969 174.143 913.758 175.214C921.937 186.351 960.028 208.866 971.726 200.109C972.491 198.574 973.444 197.553 972.685 195.818C966.808 182.366 961.334 172.062 958.402 157.397C968.513 167.151 979.775 173.682 994.073 172.728C998.2 172.453 1000.54 173.014 1004.19 170.579C1011.09 157.113 978.336 140.587 970.066 130.804C956.11 114.294 951.278 98.071 946.046 77.6916C952.182 86.0534 971.011 113.396 982.213 111.905L983.633 110.029C985.192 100.249 977.848 87.3226 973.526 78.5815C987.511 88.5983 1011.19 102.376 1028.26 92.6447C1037.42 87.5365 1034.06 81.2081 1029.49 74.1971C1021.94 62.621 1013.91 51.1867 1005.97 39.9158C1035.59 54.5302 1041.74 69.3046 1076.4 75.3026C1075.57 66.0129 1073.94 55.7534 1072.65 46.4356C1082.66 56.7371 1092.18 69.5105 1107.57 70.1106C1111.99 70.2832 1117.71 70.6226 1121.74 68.6229C1123.54 62.1872 1102.71 32.8333 1098.61 27.0176Z" fill="#92BB07"/>
<path d="M1067.85 117.913C1070.55 121.62 1072.05 125.906 1075.25 129.339C1083.75 138.46 1097.25 140.631 1105.36 149.071C1104.76 149.193 1104.13 149.339 1103.53 149.41C1094.73 150.431 1086.08 148.521 1079.19 142.827C1070.8 135.891 1068.9 128.207 1067.85 117.913Z" fill="#CFCC0D"/>
<path d="M1031.1 154.819C1031.63 155.28 1032.04 155.712 1032.43 156.306C1037.69 164.529 1045.07 172.007 1052.62 178.211C1056.36 181.283 1060.7 183.954 1063.71 187.774C1057.86 187.575 1053.17 187.162 1048.04 184.054C1037.53 177.7 1033.96 166.033 1031.1 154.819Z" fill="#CFCC0D"/>
<path d="M630.576 41.1927C629.779 36.7747 626.055 20.3138 628.12 17.1943C633.1 17.9885 652.291 42.9601 656.465 48.7163C657.357 49.9487 658.242 51.1859 659.121 52.4277C665.252 64.1742 660.145 67.2191 658.717 79.3917C647.183 92.48 644.631 101.275 641.287 118.056C639.146 116.774 637.014 115.09 634.624 115.162C633.239 118.583 630.79 150.183 630.2 155.732C617.826 146.207 615.474 144.197 609.258 129.918C609.397 137.703 609.795 154.146 608.684 161.725C605.648 182.449 603.104 198.574 602.01 219.764C594.166 201.621 591.569 179.906 589.219 160.491C588.794 156.982 587.474 154.376 585.936 151.202C583.824 145.12 573.082 130.94 569.076 124.097C564.752 116.713 559.904 107.456 555.481 100.479C547.315 79.1058 537.978 76.0407 531.717 60.2583C537.938 64.2104 552.61 72.1572 559.318 67.6013C562.442 62.0633 557.581 46.6137 556.039 39.7542C558.839 42.9993 561.619 46.388 564.378 49.6795C571.172 51.5135 584.566 56.3225 590.814 55.4067L591.991 52.5297C594.728 36.8296 595.425 33.9624 595.287 17.9196C608.028 29.1256 613.827 37.0275 630.576 41.1927Z" fill="#281633"/>
<path d="M564.379 49.6797C571.173 51.5137 584.567 56.3227 590.815 55.4069L591.992 52.5299C591.997 63.8862 592.323 76.3392 591.391 87.5599C580.486 74.4859 573.547 63.7925 564.379 49.6797Z" fill="#004F4A"/>
<path d="M689.774 15.2334C697.179 22.8409 698.952 25.1327 708.956 29.2667C709.229 50.6012 706.207 63.054 721.917 80.5663C735.691 95.9215 775.674 111.609 791.21 93.5684L797.173 93.2161C792.014 101.302 766.814 135.489 764.967 141.59C760.206 149.275 750.485 161.647 742.82 166.166C720.469 151.92 715.114 128.283 703.936 107.808C704.005 124.157 703.154 142.369 702.707 158.88C702.638 161.451 701.679 162.207 700.055 163.573C691.303 165.322 674.662 153.216 667.533 147.6C664.332 145.079 660.871 140.586 657.065 139.313C656.801 134.843 657.548 123.314 657.725 118.52C658.296 105.485 658.627 92.4398 658.718 79.3921C660.146 67.2194 665.253 64.1746 659.122 52.4281C663.596 55.0585 674.271 62.0308 678.723 62.2361C688.364 58.3565 687.398 26.1781 689.774 15.2334Z" fill="#004F4A"/>
<path d="M808.788 77.6143L819.138 84.3994C808.557 109.936 797.286 135.182 785.339 160.108L782.439 166.724C775.761 172.644 771.723 177.851 764.476 183.996C764.33 173.999 766.192 148.394 764.966 141.59C766.813 135.488 792.014 101.301 797.173 93.2155C800.597 87.7556 803.017 85.1129 808.126 81.036C808.383 79.7061 808.603 78.5655 808.788 77.6143Z" fill="#281633"/>
<path d="M783.138 57.375C791.231 63.9557 800.145 72.2835 808.788 77.6152C808.603 78.5665 808.383 79.7071 808.126 81.037C803.017 85.1139 800.597 87.7566 797.173 93.2164L791.21 93.5686C792.112 90.993 792.687 90.4709 794.694 88.6216L794.635 87.2432C790.138 82.8154 789.855 84.4089 785.198 81.7055C781.987 76.4106 783.044 63.9594 783.138 57.375Z" fill="#004F4A"/>
<path d="M875.907 150.02C882.246 155.697 887.874 159.366 894.896 164.143C895.508 183.371 892.06 218.034 888.873 237.06C876.078 231.746 860.422 207.523 854.345 195.189C850.432 184.879 848.361 175.611 846.867 164.719C869.638 182.357 886.418 186.033 875.907 150.02Z" fill="#92BB07"/>
<path d="M855.116 59.0645C864.204 61.4135 875.078 65.2026 881.036 72.8406C887.515 81.1443 887.624 91.7222 886.35 101.691C886.141 101.591 885.926 101.504 885.723 101.392C873.685 94.7763 858.924 71.9896 855.116 59.0645Z" fill="#92BB07"/>
<path d="M321.084 30.249C326.557 31.1101 341.253 40.8907 346.957 43.9323C350.906 46.0384 355.36 47.0616 359.101 49.4262L358.78 51.1021C358.602 51.1636 358.425 51.2272 358.246 51.2866L357.352 51.5772C353.545 52.8438 350.437 53.7472 346.349 52.9341C334.505 50.5786 327.446 39.508 321.084 30.249Z" fill="#076B3E"/>
<path d="M315.816 836.44C333.234 806.781 353.617 782.962 381.394 762.628C394.885 752.763 409.82 742.586 422.993 732.513C492.599 679.292 531.727 607.241 550.481 522.926C552.182 515.284 557.146 484.93 559.417 480.033C561.723 483.818 559.703 517.033 559.436 523.239C555.591 612.572 542.699 701.624 514.56 786.709C507.337 809.605 506.117 842.098 505.44 866.059C503.243 873.274 506.408 898.022 505.954 908.253C495.866 908.96 483.818 908.632 473.56 908.595C465.394 908.298 459.24 908.443 451.068 908.824C445.249 909.089 439.427 909.243 433.602 909.284C424.709 909.279 416.531 911.563 409.558 907.918C407.092 904.372 407.929 903.756 407.762 898.616C407.482 901.219 407.42 906.192 406.118 907.887C402.419 908.351 387.225 909.487 385.156 906.628C381.7 909.322 356.16 908.534 352.875 905.7C352.572 906.352 351.951 906.692 351.296 907.232C346.608 907.69 333.32 908.484 329.921 905.695C327.544 908.618 319.641 907.774 315.816 907.71L296.769 909.284L297.564 903.057C300.299 881.664 305.836 860.725 314.033 840.777L315.816 836.44Z" fill="#8D1A55"/>
<path d="M527.066 638.294C516.137 702.654 502.924 717.232 514.559 786.709C507.337 809.605 506.116 842.098 505.439 866.059C503.242 873.274 506.408 898.022 505.953 908.253C495.865 908.96 483.817 908.631 473.559 908.595C465.394 908.298 459.239 908.442 451.067 908.824C445.248 909.089 439.426 909.243 433.602 909.283C436.048 882.033 442.496 855.538 450.142 829.344C469.751 762.165 495.216 700.545 527.066 638.294Z" fill="#281633"/>
<path d="M451.067 908.824C455.509 865.246 465.37 832.589 486.675 794.889C486.857 814.853 483.323 842.969 480.714 863.097C478.893 877.151 473.722 894.136 473.56 908.595C465.394 908.298 459.24 908.442 451.067 908.824Z" fill="#006F65"/>
<path d="M456.997 722.199L458.813 723.178C441.699 754.441 433.929 776.041 424.531 809.679C422.274 817.758 416.936 839.478 414.063 845.412C411.925 857.254 410.332 871.192 408.833 883.255C408.7 888.988 408.448 892.927 407.762 898.616C407.481 901.219 407.42 906.192 406.118 907.887C402.419 908.352 387.224 909.488 385.156 906.628C381.7 909.322 356.16 908.534 352.874 905.701C352.571 906.353 351.951 906.692 351.296 907.232C346.607 907.69 333.32 908.484 329.921 905.695C327.543 908.618 319.641 907.774 315.815 907.71V891.938C319.268 880.402 322.651 868.707 327.892 857.956C349.527 813.578 391.515 785.895 427.474 754.306C437.454 745.539 448.375 732.566 456.997 722.199Z" fill="#281633"/>
<path d="M335.545 883.16C344.892 857.331 364.212 833.551 386.057 817.108C378.954 845.867 369.502 857.357 358.817 883.978C355.58 882.371 340.249 883.098 335.545 883.16Z" fill="#004F4A"/>
<path d="M394.013 882.598C396.863 874.541 406.971 847.217 413.34 842.976L414.064 845.411C411.926 857.253 410.332 871.192 408.834 883.254L394.013 882.598Z" fill="#004F4A"/>
<path d="M555.482 100.479C559.905 107.457 564.752 116.713 569.076 124.098C573.082 130.941 583.824 145.12 585.937 151.203C585.036 200.951 583.847 250.694 582.37 300.428C581.812 322.597 579.307 352.987 581.301 373.732C585.81 363 586.021 345.471 590.737 337.065L591.722 337.053C598.247 353.259 594.059 417.005 592.776 437.37C586.106 542.583 581.641 651.243 544.894 751.131C537.843 770.296 528.792 790.861 521.904 810.185C519.774 816.162 506.102 866.707 505.863 867.041L505.439 866.059C506.117 842.098 507.337 809.606 514.56 786.71C542.698 701.625 555.591 612.573 559.436 523.24C559.703 517.034 561.722 483.82 559.417 480.034C557.146 484.931 552.181 515.285 550.481 522.927C531.727 607.242 492.599 679.293 422.992 732.514C409.819 742.586 394.885 752.764 381.394 762.628C353.617 782.963 333.234 806.781 315.815 836.44L316.814 832.014C321.858 809.655 329.025 787.426 342.646 768.992C351.493 757.018 361.488 746.86 375.843 735.369C389.632 724.527 403.965 714.772 417.458 703.404C431.537 691.543 440.992 680.083 452.668 666.088C452.931 665.795 453.189 665.498 453.448 665.203C454.984 663.454 456.462 661.657 457.887 659.816C458.632 658.854 459.364 657.883 460.081 656.899C460.855 655.838 461.614 654.764 462.358 653.679C462.94 652.829 463.511 651.971 464.076 651.109C464.955 649.768 465.817 648.414 466.657 647.046C467.003 646.484 467.345 645.92 467.685 645.353C468.024 644.787 468.36 644.218 468.694 643.648C469.361 642.508 470.019 641.36 470.666 640.207C471.312 639.053 471.948 637.893 472.576 636.728C473.204 635.563 473.823 634.393 474.435 633.22C476.453 629.346 478.386 625.432 480.277 621.523C481.823 618.326 483.341 615.132 484.851 611.964C490.214 603.776 497.898 584.496 500.274 575.068C520.429 525.291 525.886 476.415 533.792 424.526C535.117 418.788 536.608 404.671 537.564 398.034L538.23 392.001C542.616 353.098 545.794 317.145 549.279 278.285C550.208 270.885 550.393 263.161 550.721 255.693C550.626 247.718 552.416 237.121 552.651 228.177C552.622 197.329 554.746 170.088 555.584 139.654C556.398 128.754 555.647 111.811 555.482 100.479Z" fill="#DC8B01"/>
<path d="M689.936 797.813C696.415 798.313 718.998 813.177 725.02 818.174C745.711 835.348 757.48 858.455 766.594 883.137L726.362 883.17C716.442 850.655 709.843 826.656 689.936 797.813Z" fill="#006F65"/>
<path d="M653.447 822.971C670.885 856.113 681.348 872.39 689.024 909.136C680.607 909.355 671.519 909.171 663.047 909.156L653.447 822.971Z" fill="#004F4A"/>
<path d="M608.195 534.957C608.982 548.359 608.786 566.288 610.179 578.917C617.141 642.061 631.749 709.941 681.576 753.679C698.589 768.613 708.127 774.304 725.407 786.628C751.287 805.085 772.938 832.632 782.691 862.958C787.23 877.069 793.958 894.065 795.376 909.345L771.222 909.229C770.849 901.466 770.59 899.962 768.321 892.376L766.594 883.137C757.48 858.454 745.711 835.348 725.02 818.175C718.998 813.177 696.415 798.313 689.936 797.813C707.355 823.05 714.584 844.579 722.765 871.35L726.361 883.17C728.26 891.805 730.083 900.456 731.828 909.123C725.017 909.531 716.921 910.152 710.199 909.49C704.888 909.081 697.493 909.153 691.498 909.146L689.024 909.136L688.662 907.428C681.019 871.877 670.612 855.595 653.447 822.971L663.046 909.154L631.87 909.121C634.936 858.056 623.355 801.528 604.414 754.365C599.913 743.157 591.195 728.963 588.232 719.623C597.298 679.739 597.401 644.546 600.155 604.171C601.297 587.431 603.078 549.841 608.195 534.957Z" fill="#281633"/>
<path d="M558.451 909.149C560.795 896.625 561.699 884.293 563.516 871.721C565.195 860.094 568.039 848.478 569.272 836.791C575.942 855.249 579.742 888.945 582.254 909.174L558.451 909.149Z" fill="#004F4A"/>
<path d="M577.231 755.193C602.007 797.815 610.071 860.412 608.048 909.307C599.52 909.162 590.802 909.215 582.255 909.174L582.253 909.173C579.741 888.944 575.942 855.249 569.272 836.791C568.039 848.478 565.195 860.094 563.516 871.721C561.699 884.293 560.795 896.625 558.451 909.148V909.149L533.057 909.208C535.329 844.547 552.457 811.892 577.231 755.193Z" fill="#281633"/>
<path d="M606.504 293.535C606.792 291.336 606.808 289.045 608.159 287.388C609.221 290.929 609.015 297.02 608.793 300.833C609.148 313.254 609.871 358.377 604.575 368.462C599.888 357.997 604.077 307.007 606.504 293.535Z" fill="#DC8B01"/>
<path d="M618.147 406.323C621.333 415.161 619.751 468.104 616.636 477.212C614.127 459.393 614.263 424.023 618.147 406.323Z" fill="#DC8B01"/>
<path d="M726.361 883.169L766.594 883.137L768.321 892.376C770.59 899.962 770.849 901.465 771.221 909.228L795.376 909.345C801.992 909.349 808.609 909.396 815.226 909.485C823.747 909.85 866.466 909.063 867.062 919.57C861.072 930.415 804.395 931.974 791.716 932.988C798.983 933.993 810.84 934.731 816.303 939.378L816.529 941.084C811.527 946.579 791.957 947.538 784.33 947.916C756.21 949.318 718.919 944.163 691.834 950.728C703.522 956.722 728.872 960.696 731.461 968.616L731.132 971.337C729.563 981.027 723.181 984.522 710.198 991.897C691.834 996.813 686.408 995.9 682.014 996.813L684.034 995.292L683.858 996.509L682.014 996.813C631.401 994.2 587.392 985.751 587.392 1006.65C588.621 1018.32 696.895 1012.49 686.197 1012.43C672.291 1025.07 665.96 1058.54 662.542 1076.87C653.214 1077.34 644.674 1079.41 635.797 1082.1C646.461 1086.91 657.13 1087.14 668.582 1088.11C655.891 1110.42 658.074 1230.02 658.051 1258H557.9C559.034 1246.48 552.763 1117.99 551.609 1106.22C549.98 1089.58 550.123 1072.75 548.61 1056.06C558.021 1054.38 569.655 1056.57 578.422 1053.07C581.055 1052.02 582.509 1050.75 583.574 1048.22C576.509 1038.51 529.45 1048.34 519.713 1040.13L519.976 1038.69C527.988 1031.22 565.863 1033.98 578.624 1030.6C581.22 1029.91 582.55 1029.34 583.865 1026.97L582.747 1025.1C575.02 1019.37 535.301 1020.71 522.785 1018.07C518.697 1017.2 513.889 1016.19 511.509 1012.53C514.393 1006.3 536.984 1004.95 544.283 1001.3L545.402 1000.74C527.392 1000.34 509.388 999.69 491.395 998.823C479.694 998.169 450.158 996.315 442.28 987.473C448.276 973.494 561.251 983.102 579.847 971.844L579.575 970.82C576.149 969.161 572.284 968.81 568.537 968.524C553.279 967.372 537.701 968.248 522.398 968.026C493.399 967.602 464.433 966.837 435.427 966.754C418.46 966.699 396.064 969.087 380.048 963.471C376.47 962.217 372.921 960.272 371.256 956.823L372.147 954.878C381.108 948.137 419.158 947.686 432.957 944.302L433.881 941.563C395.117 938.142 336.971 938.55 297.997 938.43L279.564 936.586L267.276 931.055C263.907 929.335 270.355 915.439 274.057 912.407C274.427 912.103 274.892 911.974 275.367 911.916L296.768 909.283C300.594 909.347 296.768 907.886 329.921 905.694C333.32 908.483 346.607 907.689 351.296 907.231C351.951 906.691 352.571 906.352 352.874 905.7C356.16 908.533 381.7 909.321 385.156 906.627C387.224 909.486 402.419 908.351 406.118 907.886C407.42 906.191 407.481 901.218 407.762 898.615C407.928 903.755 407.091 904.371 409.557 907.917C416.531 911.562 424.708 909.278 433.602 909.283C439.427 909.242 445.249 909.088 451.067 908.824C459.239 908.442 465.394 908.297 473.56 908.594C483.818 908.631 495.865 908.959 505.954 908.252L506.557 921.23C515.394 921.202 524.424 921.277 533.242 921.128L533.056 909.208L558.451 909.149L582.254 909.174C590.802 909.215 599.52 909.162 608.047 909.307L607.187 919.268C615.913 919.891 622.454 919.948 631.22 919.825C631.328 916.892 631.359 911.834 631.87 909.121L663.046 909.155C671.518 909.171 680.606 909.355 689.024 909.135C695.337 909.183 704.129 909.023 710.198 909.49C716.92 910.152 725.017 909.531 731.828 909.123C730.082 900.456 728.26 891.804 726.361 883.169Z" fill="url(#paint1_linear_80_2303)"/>
<path d="M658.717 79.3916C658.626 92.4392 658.294 105.484 657.724 118.52C657.546 123.313 656.8 134.842 657.063 139.312C657.207 139.361 657.35 139.415 657.493 139.472C656.586 165.639 656.832 192.868 654.999 218.654C696.279 207.124 712.413 195.913 742.566 166C742.651 166.054 742.734 166.111 742.819 166.165C750.484 161.646 760.205 149.274 764.965 141.59C766.191 148.395 764.329 173.999 764.475 183.996L763.797 185.532C732.388 216.516 701.806 245.513 663.124 266.827C659.411 268.873 652.33 273.056 651.715 277.339C650.437 294.791 649.435 312.263 648.713 329.747C648.63 341.009 648.106 352.265 647.141 363.485C645.755 376.626 643.842 411.687 643.894 425.354C644.079 425.564 644.265 425.781 644.452 426.004C642.073 458.469 642.394 497.365 643.701 529.812C643.474 529.929 643.273 530.017 643.098 530.067C643.703 549.425 645.396 568.734 648.168 587.901C650.152 605.97 653.947 623.794 659.494 641.104C671.492 685.941 693.881 724.668 730.134 753.432C735.566 757.742 742.217 764.355 747.637 768.271C781.746 804.996 798.869 835.461 813.033 883.215C814.965 893.907 815.706 898.391 815.225 909.484C808.608 909.396 801.991 909.349 795.375 909.345C793.957 894.065 787.23 877.069 782.69 862.958C772.937 832.632 751.285 805.085 725.405 786.628C708.126 774.304 698.587 768.613 681.575 753.679C631.749 709.941 617.14 642.061 610.178 578.917C608.785 566.288 608.981 548.359 608.194 534.957C603.077 549.841 601.295 587.431 600.153 604.171C597.399 644.546 597.297 679.739 588.231 719.623C591.195 728.963 599.912 743.157 604.413 754.365C623.354 801.528 634.935 858.056 631.869 909.121C631.358 911.834 631.328 916.892 631.22 919.825C622.453 919.949 615.912 919.891 607.186 919.268L608.047 909.307C610.07 860.412 602.006 797.815 577.23 755.193C552.843 811.006 535.865 843.52 533.173 906.2L533.056 909.208L533.24 921.129C524.423 921.277 515.393 921.203 506.557 921.23L505.953 908.252C506.407 898.022 503.241 873.274 505.438 866.059L505.862 867.04C506.103 866.698 519.773 816.16 521.903 810.184C528.791 790.86 537.842 770.295 544.893 751.13C581.64 651.242 586.105 542.583 592.775 437.37C594.058 417.005 598.247 353.258 591.722 337.052L590.736 337.064C586.021 345.471 585.809 363 581.3 373.731C579.306 352.986 581.812 322.596 582.369 300.427C583.847 250.693 585.035 200.95 585.936 151.202C587.474 154.376 588.794 156.982 589.219 160.491C591.569 179.906 594.166 201.62 602.01 219.764C603.104 198.574 605.648 182.449 608.684 161.725C609.794 154.145 609.397 137.703 609.258 129.918C615.473 144.197 617.825 146.207 630.199 155.731C630.79 150.183 633.239 118.582 634.624 115.161C637.014 115.089 639.145 116.774 641.286 118.056C644.63 101.274 647.183 92.4797 658.717 79.3916ZM704.4 108.671C704.405 124.565 703.602 142.077 703.171 158.005C703.135 159.352 702.851 160.198 702.359 160.897C702.563 160.361 702.683 159.717 702.705 158.879C703.152 142.369 704.003 124.156 703.935 107.808C704.091 108.095 704.246 108.383 704.4 108.671Z" fill="#8D1A55"/>
<path d="M782.903 165.851C781.499 175.626 780.562 190.285 780.529 200.256C780.425 231.448 771.786 261.955 768.59 292.235C765.171 309.607 760.89 330.597 755.003 347.05C751.978 356.044 748.379 364.836 744.228 373.37C739.38 380.817 736.108 383.492 729.657 389.476C728.955 389.961 728.233 390.414 727.492 390.837C701.193 406.173 678.499 386.566 665.608 364.059C659.932 363.616 652.872 364.189 647.606 362.611C648.571 351.391 649.096 340.136 649.179 328.874C649.901 311.39 650.902 293.918 652.181 276.465C656.193 298.731 667.07 331.943 678.184 351.356C690.611 372.602 712.278 386.768 729.581 361.252C755.582 323.749 763.095 230.753 764.262 184.659L764.941 183.123C772.187 176.977 776.225 171.77 782.903 165.851Z" fill="url(#paint2_linear_80_2303)"/>
<defs>
<linearGradient id="paint0_linear_80_2303" x1="836.625" y1="-145.158" x2="611.474" y2="481.768" gradientUnits="userSpaceOnUse">
<stop stop-color="#056D37"/>
<stop offset="1" stop-color="#004350"/>
</linearGradient>
<linearGradient id="paint1_linear_80_2303" x1="590.167" y1="895.148" x2="606.015" y2="1209.61" gradientUnits="userSpaceOnUse">
<stop stop-color="#006581"/>
<stop offset="1" stop-color="#018C8D"/>
</linearGradient>
<linearGradient id="paint2_linear_80_2303" x1="713.155" y1="171.686" x2="719.735" y2="393.556" gradientUnits="userSpaceOnUse">
<stop stop-color="#02383B"/>
<stop offset="1" stop-color="#005750"/>
</linearGradient>
</defs>
</svg>
