<svg width="1340" height="1075" viewBox="0 0 1340 1075" fill="none" xmlns="http://www.w3.org/2000/svg">
<g clip-path="url(#clip0_80_2247)">
<path d="M913.335 83.0135L891.642 0H1277.89C1275.26 26.8441 1257.5 20.8389 1233.64 19.0571C1226.87 36.27 1208.27 28.6718 1201.47 23.8261C1204.14 29.4173 1225.67 51.8856 1218.88 54.0977C1206.42 68.4837 1179.31 51.278 1165.84 41.4304C1175.14 58.172 1163.1 65.981 1179.54 74.999C1143.08 109.18 1117.3 55.8569 1094.61 32.0264C1099.64 71.4306 1060.12 52.3616 1040.13 37.6848C1045.15 49.4847 1062.89 84.7951 1033.65 71.1553C1018.97 64.3075 1006.2 50.6048 992.271 41.6599C998.635 52.8919 1017.74 83.9676 1016.65 96.4595C1005.85 113.25 980.555 84.3344 968.411 89.3388L967.726 92.6997C948.463 94.9734 930.92 91.4789 913.335 83.0135Z" fill="#004F4A"/>
<path d="M1123.26 899.239C1129.27 898.399 1145.95 898.36 1151 901.644L1151.32 903.338C1140.55 915.958 1089.45 910.826 1079.77 918.919C1080.34 924.272 1093.02 926.252 1097.46 930.674L1097.27 932.419C1076.98 942.701 1022.54 942.318 994.104 942.181L993.245 959.849C1009.95 961.91 1026.88 964.579 1031.39 968.093L1032.54 970.266C1031.48 972.774 1030.93 973.201 1028.38 974.236C1025.84 975.273 1011.27 975.793 992.457 976.033L992.428 976.642L928.962 976.144C923.647 976.12 918.622 976.096 914.052 976.073L914.058 976.027L908.581 975.985C879.286 975.764 849.535 974.719 820.313 976.588C814.154 976.981 804.736 977.043 799.561 980.436C800.298 982.182 801.27 982.354 802.991 983.067C816.55 988.624 859.639 986.399 866.758 997.058C866.352 999.419 865.787 1000.18 863.71 1001.55C846.867 1012.51 762.066 1009.01 736.901 1011.58C747.055 1014.51 772.343 1018.21 779.67 1024.34C780.26 1026.39 780.567 1026.91 779.584 1028.84C777.936 1032.01 774.494 1034.03 772.564 1036.98C767.02 1045.48 764.205 1060.01 763.025 1070.16C761.917 1071.12 761.279 1071.34 760.026 1071.46L759.447 1071.52C774.175 1072.25 753.364 1070.48 766.235 1078.26L766.96 1079.53C764.894 1081.93 763.904 1083.57 763.512 1084.43C756.156 1085 770.458 1085.41 762.668 1086.32C758.906 1106.99 750.473 1146.26 752.636 1165.74C723.624 1189.04 706.597 1218.36 701.63 1255.55H691.353C688.981 1239.95 683.904 1226.47 676.638 1212.55C677.658 1205.77 676.158 1197.37 675.679 1190.47C673.122 1154.4 667.885 1119.65 659.845 1084.4L658.492 1079.72C659.281 1077.04 658.492 1075.19 659.709 1073.5L661.197 1073.31C658.48 1071.81 658.799 1066.23 658.492 1063.46C653.574 1018.91 624.108 1037.4 609.429 1023.34V1021.8C623.027 1015.5 676.638 1024.22 687.628 1014.47L687.604 1012.84C675.605 1001.46 616.251 1014.87 597.282 1002.51C593.717 1000.18 589.439 997.316 588.517 992.915C593.189 982.637 619.694 990.05 627.771 981.026C627.968 979.489 628.262 978.997 627.586 977.534C623.787 969.445 593.08 972.272 584.941 972.21C567.312 972.087 460.689 973.415 453.522 970.526C451.063 969.542 450.535 969.137 449.514 966.752L450.62 964.686C458.624 958.538 507.11 955.108 520.301 953.005L519.525 950.965C520.595 945.654 523.079 943.822 527.307 940.933C515.788 940.65 504.257 940.711 492.726 940.649V940.023C467.917 940.047 408.27 941.338 387.124 930.764L386.94 929.105C391.218 924.9 403.437 923.019 403.991 917.929C394.66 910.232 345.4 915.112 335.024 903.113L335.332 901.502C340.201 898.38 356.28 898.416 362.07 899.215L362.636 902.302C366.618 904.466 483.063 903.298 497.692 903.532C503.679 903.63 515.985 902.241 521.062 904.613C526.926 905.351 532.816 905.228 538.741 905.24C548.687 906.371 572.634 905.105 583.846 905.252L587.189 906.249C593.865 905.892 599.213 905.904 605.852 906.027C611.482 906.113 617.223 906.444 622.841 906.186L641.036 906.027C639.745 910.908 638.318 915.777 637.236 920.695C656.316 921.175 675.396 921.322 694.476 921.162L694.648 906.223L719.518 906.076C727.976 906.076 736.508 905.842 744.966 906.125C758.218 906.322 772.958 907.835 785.989 906.15L798.111 906.322L797.914 921.212C805.376 921.248 813.022 921.581 820.46 921.101C833.663 920.449 847.027 922.022 860.193 920.633C861.889 918.862 861.508 916.231 861.681 913.821C862.037 911.068 862.48 908.35 863.008 905.621C863.746 905.461 864.484 905.326 865.221 905.215C871.319 904.33 878.401 904.933 884.597 904.884C902.52 904.736 920.444 905.117 938.368 905.092C945.094 905.079 951.826 904.965 958.561 904.802C963.973 902.465 976.442 903.881 982.556 903.779C984.586 903.746 988.504 903.74 993.78 903.748C994.512 903.727 995.245 903.704 995.977 903.684L995.974 903.754C1031.69 903.827 1086.9 905.268 1090.42 903.338L1123.26 899.239Z" fill="url(#paint0_linear_80_2247)"/>
<path d="M763.776 1084.41C763.38 1085.39 763.076 1085.39 763.512 1084.43C763.597 1084.43 763.685 1084.42 763.776 1084.41Z" fill="url(#paint1_linear_80_2247)"/>
<path d="M618.526 836.707C612.096 842.092 605.495 847.268 598.844 852.371C599.311 852.223 599.79 852.076 600.258 851.928C606.49 849.936 612.723 847.895 618.944 845.83C618.796 842.793 618.649 839.744 618.513 836.707H618.526Z" fill="#281633"/>
<path d="M994.635 907.168C975.765 907.697 956.882 908.508 938.048 908.545C920.124 908.57 902.2 908.189 884.276 908.336C878.08 908.385 870.999 907.783 864.901 908.668C864.164 908.779 863.426 908.914 862.688 909.074C862.16 911.803 861.717 914.521 861.361 917.275C862.074 881.914 854.661 862.439 851.526 830.055C868.847 846.235 887.755 884.337 889.992 907.635C909.084 907.316 929.233 907.721 948.387 907.943C947.379 882.996 946.223 870.542 937.064 846.874C928.262 820.907 913.227 801.137 897.11 779.645C859.885 732.765 838.027 718.306 812.764 658.749C801.208 629.758 796.586 612.016 791.533 581.894C787.034 560.132 784.538 536.218 782.276 514.161C780.026 490.813 778.33 467.428 777.186 444.006C777.555 444.191 777.936 444.338 778.318 444.51C776.904 439.568 776.031 434.404 775.797 429.105C775.674 426.388 775.847 423.609 776.24 420.806C776.252 412.507 775.576 402.081 775.244 394.15C773.597 371.134 773.818 347.171 772.896 323.934C781.28 321.512 787.095 318.696 794.643 314.664C803.507 309.328 808.953 305.037 816.452 298.127L818.087 296.184C850.825 266.603 866.671 222.489 881.891 182.321C881.842 183.76 881.276 186.772 881.301 187.645C881.424 193.19 881.448 198.661 881.411 204.095C883.624 192.44 889.869 180.747 897.639 172.706C897.688 170.248 897.737 167.776 897.799 165.243C897.565 163.448 897.405 161.629 897.319 159.797C896.643 144.785 904.511 127.646 914.961 117.195C915.907 116.248 916.915 115.338 917.936 114.453C909.515 104.15 904.302 91.0313 903.491 76.9045C902.741 76.9413 901.991 76.9659 901.241 76.9659C893.373 76.9659 885.997 75.4537 879.26 72.7365C876.187 79.1176 872.118 84.9453 867.557 89.5068C856.628 100.437 840.412 107.15 824.959 107.15C797.237 107.15 775.441 88.5478 767.708 63.835C753.62 67.2038 739.433 70.1423 724.902 71.5931C715.079 72.5767 705.232 73.3144 695.385 73.8676C694.475 76.0684 693.43 78.22 692.287 80.2979C692.877 82.3142 693.332 84.3921 693.664 86.5068C695.238 91.019 696.184 95.8141 696.405 100.781C696.59 104.986 696.061 109.08 694.967 112.978C695.311 114.539 695.533 116.15 695.606 117.797C695.705 119.986 695.471 122.125 694.943 124.178C695.668 126.478 696.11 128.912 696.221 131.408C696.369 134.605 695.778 137.678 694.66 140.543C694.992 142.104 695.225 143.703 695.299 145.338C695.422 147.957 695.053 150.502 694.303 152.912C694.684 154.571 694.918 156.28 694.992 158.014C695.619 171.957 682.673 183.833 669.175 183.833C658.48 183.833 649.862 177.366 645.817 168.354C640.42 166.141 635.577 162.207 632.036 157.436C628.52 152.69 625.164 147.809 622.472 142.535C620.579 138.809 618.87 134.936 617.431 131.014C613.805 126.871 610.891 122.076 608.851 116.838C605.58 112.277 603.085 107.703 601.106 102.072C597.922 98.6665 595.229 94.7813 593.139 90.5272C591.381 90.7608 589.611 90.9084 587.829 90.9084C583.661 90.9084 579.678 90.3428 575.916 89.31C572.339 91.56 568.478 93.3428 564.446 94.5723C564.458 94.855 564.495 95.1255 564.508 95.4083C564.753 101.015 563.758 106.437 561.778 111.465C561.778 111.662 561.803 111.871 561.815 112.068C561.963 115.437 561.655 118.719 560.967 121.904C562.049 125.642 562.713 129.539 562.885 133.559C563.045 137.137 562.688 140.641 561.901 144.01C562.688 144.109 563.5 144.195 564.385 144.293C563.918 171.575 559.098 210.968 551.353 237.267C515.678 222.698 491.84 198.538 473.228 165.453C473.461 165.502 473.695 165.563 473.929 165.637C473.043 164.223 472.257 162.735 471.519 161.223C465.311 155.026 460.86 147.035 458.746 138.17C457.295 136.252 455.968 134.236 454.812 132.096C450.632 128.236 446.981 123.81 443.981 118.892C438.978 120.232 433.852 120.969 428.811 120.969C427.643 120.969 426.475 120.933 425.332 120.859C426.193 123.699 427.004 126.527 427.791 129.367C432.044 134.764 435.142 141.145 436.827 148.055C437.798 149.42 438.683 150.858 439.507 152.334C444.867 159.084 448.444 167.37 449.649 176.333C450.411 175.522 451.198 174.428 452.353 172.866C475.01 213.292 504.54 239.64 545.637 259.459C545.502 259.779 545.367 260.123 545.231 260.455C547.075 261.046 548.858 261.746 550.616 262.509C552.288 262.976 553.923 263.505 555.521 264.119C559.725 264.685 563.77 265.656 567.606 267.045C581.387 270.107 596.459 271.386 610.092 269.541C610.154 269.886 610.215 270.254 610.289 270.623C614.063 269.861 617.874 269.455 621.636 269.455C622.841 269.455 624.033 269.504 625.213 269.566C625.078 268.89 624.967 268.263 624.869 267.722C640.371 264.722 650.895 263.222 665.684 257.259C675.789 266.849 680.977 270.832 692.73 278.308C692.68 280.176 692.644 283.262 692.607 287.062C703.118 298.016 709.633 312.967 710.359 329.159C710.531 333.081 710.1 337.139 709.215 341.196C710.445 345.794 711.207 350.589 711.428 355.495C711.576 358.864 711.281 362.331 710.641 365.823C714.17 373.827 715.571 382.532 716.346 391.261C720.734 441.203 716.235 491.084 711.33 540.841C714.76 543.091 717.895 545.599 720.575 548.292C731.491 559.21 738.228 575.451 738.216 590.894C738.216 616.861 737.933 642.84 737.663 668.807C737.527 681.47 737.417 694.134 737.331 706.798C739.888 710.4 742.31 714.052 744.609 717.716C759.57 741.556 770.241 768.592 779.203 795.162C779.977 797.436 780.715 799.735 781.452 802.022C791.816 807.284 800.323 816.075 806.556 825.739C814.805 838.538 816.6 857.743 812.629 872.165C810.428 880.169 806.224 887.939 800.729 894.603C800.852 896.103 800.962 897.591 801.061 899.091C801.528 906.517 801.417 914.017 800.876 921.516C823.423 921.221 845.969 920.545 868.503 919.562C910.719 917.717 952.874 914.853 995.016 911.668C994.881 910.181 994.771 908.693 994.648 907.205V907.168H994.635ZM567.765 243.329C576.137 219.181 581.719 171.821 577.281 147.379L577.613 144.76C579.543 145.891 583.157 153.711 584.288 156.28C589.218 167.432 598.684 178.006 603.515 188.776C602.876 205.165 604.437 231.698 607.154 248.259C593.889 248.148 580.674 246.501 567.765 243.329ZM623.185 246.943C621.169 244.423 617.518 209.923 617.259 204.415C628.938 218.444 637.224 228.193 650.526 240.906C641.047 243.931 632.688 244.804 623.185 246.943ZM769.798 172.018C769.38 164.604 768.913 157.141 768.815 149.715C778.76 160.116 789.16 164.862 800.827 173.223C800.643 162.145 800.298 152.629 798.54 141.686C800.667 143.764 802.819 145.83 804.995 147.858C812.408 154.731 831.782 167.248 842.047 166.854C843.191 166.325 844.309 166.092 844.678 165.133C847.051 159.207 839.306 137.949 837.4 131.74C838.335 132.711 839.306 133.658 840.289 134.58C852.018 145.584 857.918 148.178 873.654 147.674C859.172 199.694 829.164 272.148 772.638 289.361C769.933 250.558 771.949 210.882 769.798 172.018Z" fill="#281633"/>
<path d="M77.3349 10.6597C90.8332 13.5736 99.1929 8.13925 110.626 1.93031C113.835 11.3482 89.7145 58.6222 85.8912 74.704C101.074 78.4539 105.131 80.0768 120.264 75.8597C114.474 89.4824 107.221 98.8143 98.2217 110.249C96.7587 112.093 97.0661 113.863 97.2997 115.966C102.119 122.777 112.851 123.392 120.227 125.199L121.727 125.728C143.708 125.285 151.576 121.916 167.926 106.56L160.968 128.248C181.609 128.654 185.481 126.699 203.996 117.613C210.622 113.273 219.498 105.908 225.399 100.622L227.144 99.0356L228.128 99.5643C228.374 109.966 215.527 139.314 211.396 150.035C211.667 150.588 211.95 151.141 212.22 151.707C224.858 159.158 256.256 130.252 265.168 121.818C261.751 132.109 257.829 149.014 257.399 159.871C282.011 154.387 294.685 142.314 309.991 122.9C313.163 118.88 316.924 112.609 319.961 109.007C318.08 93.5275 315.72 76.7572 314.662 61.3148C313.986 62.4582 313.249 63.5648 312.45 64.6344C304.274 75.7736 266.164 98.2979 254.461 89.5439C253.699 88.0071 252.74 86.9866 253.502 85.253C259.378 71.7901 264.861 61.4869 267.799 46.8191C257.682 56.5689 246.408 63.1098 232.111 62.1508C227.98 61.8803 225.632 62.4336 221.981 59.9992C215.084 46.5363 247.847 29.9996 256.12 20.2129C270.086 3.70077 274.917 -12.5285 280.154 -32.9135C274.02 -24.553 255.174 2.80325 243.974 1.31557L242.548 -0.565575C240.987 -10.3523 248.339 -23.2743 252.666 -32.0283C238.676 -22.0079 214.986 -8.22531 197.91 -17.9506C188.739 -23.0653 192.108 -29.3972 196.681 -36.4053C204.229 -47.9871 212.257 -59.4214 220.211 -70.6958C190.571 -56.0771 184.424 -41.2986 149.744 -35.2987C150.58 -44.5937 152.215 -54.8599 153.506 -64.1795C143.487 -53.8763 133.959 -41.1019 118.568 -40.4995C114.142 -40.3273 108.425 -39.9831 104.381 -41.9872C102.586 -48.4174 123.424 -77.79 127.53 -83.6055C108.991 -70.5483 100.127 -60.073 78.7732 -47.4338C76.1916 -34.8684 49.0596 4.54912 77.3349 10.6597Z" fill="url(#paint2_linear_80_2247)"/>
<path d="M9.72064 127.463C23.219 130.377 31.5786 124.942 43.0116 118.733C46.2203 128.151 22.1003 175.425 18.277 191.507C33.4595 195.257 37.5164 196.88 52.6498 192.663C46.8595 206.286 39.6063 215.617 30.6074 227.052C29.1445 228.896 29.4518 230.666 29.6854 232.769C34.5045 239.58 45.2368 240.195 52.6129 242.002L54.1127 242.531C76.0937 242.088 83.9616 238.72 100.312 223.363L93.3538 245.051C113.995 245.457 117.867 243.502 136.381 234.416C143.008 230.076 151.884 222.712 157.784 217.425L159.53 215.839L160.514 216.367C160.76 226.769 147.913 256.117 143.782 266.838C144.053 267.391 144.335 267.945 144.606 268.51C157.244 275.961 188.641 247.055 197.554 238.621C194.137 248.912 190.215 265.818 189.785 276.674C214.396 271.19 227.071 259.117 242.377 239.703C245.548 235.683 249.31 229.412 252.347 225.81C250.466 210.331 248.105 193.56 247.048 178.118C246.372 179.261 245.634 180.368 244.835 181.437C236.66 192.577 198.55 215.101 186.847 206.347C186.084 204.81 185.125 203.79 185.888 202.056C191.764 188.593 197.247 178.29 200.185 163.622C190.067 173.372 178.794 179.913 164.497 178.954C160.366 178.683 158.018 179.237 154.367 176.802C147.47 163.339 180.233 146.803 188.506 137.016C202.472 120.504 207.303 104.275 212.54 83.8896C206.406 92.2502 187.56 119.606 176.36 118.119L174.934 116.238C173.373 106.451 180.724 93.5289 185.052 84.7749C171.062 94.7952 147.372 108.578 130.296 98.8525C121.125 93.7378 149.736 89.3841 154.309 82.376C161.857 70.7942 108.168 85.4497 130.296 92.2119C162.259 108.81 153.338 76.3761 118.658 82.376C119.494 73.081 177.605 76.9416 178.896 67.6221C168.877 77.9252 203.508 28.2906 188.116 28.8931C116.814 43.0322 114.711 3.23356 110.667 1.22949C76.8595 17.8276 66.4099 5.53271 65.7952 0L22.7677 0.614746C20.1861 13.1802 -18.5546 121.352 9.72064 127.463Z" fill="#92BB07"/>
<path d="M59.9521 89.6904C57.2476 93.4035 55.7477 97.6821 52.5391 101.125C44.032 110.248 30.5336 112.424 22.4199 120.858C23.01 120.981 23.6492 121.129 24.2516 121.202C33.0538 122.223 41.7085 120.317 48.5929 114.612C56.9894 107.678 58.8949 99.9936 59.9399 89.6904H59.9521Z" fill="#CFCC0D"/>
<path d="M96.71 126.613C96.1813 127.08 95.7634 127.51 95.3823 128.101C90.1206 136.326 82.7322 143.801 75.1839 150.01C71.4467 153.084 67.0947 155.752 64.0828 159.576C69.9468 159.379 74.6307 158.961 79.7694 155.85C90.2804 149.494 93.8456 137.826 96.71 126.601V126.613Z" fill="#CFCC0D"/>
<path d="M574.294 993.246L574.564 994.66C571.995 996.394 567.557 996.406 564.496 996.812C547.26 999.098 500.951 999.037 485.092 993.885C483.162 993.258 482.104 993.074 481.207 991.267C484.489 987.652 491.042 987.554 495.541 987.308C513.207 986.976 560.451 984.16 574.294 993.246Z" fill="#13B49A"/>
<path d="M1163.34 982.34C1163.22 982.881 1163.08 983.409 1162.96 983.95C1162.5 983.926 1162.06 983.901 1161.61 983.889C1162.19 983.348 1162.76 982.832 1163.34 982.34Z" fill="#07A892"/>
<path d="M808.388 1083.17C804.024 1088.24 792.923 1088.15 786.468 1088.59C778.515 1089.17 770.229 1088.85 762.348 1089.77C731.86 1091.15 689.841 1091.19 659.525 1087.86C651.94 1086.77 644.957 1085.32 637.876 1082.27C645.289 1079.14 652.923 1077.76 660.877 1076.77C693.689 1074.79 726.267 1074.71 759.128 1074.97C773.855 1075.71 794.791 1074.12 807.663 1081.9L808.388 1083.17Z" fill="#D2D955"/>
<path d="M599.065 948.626C572.855 954.294 546.633 954.712 519.981 956.458L519.206 954.417C520.276 949.106 522.759 947.274 526.988 944.385C515.469 944.102 503.938 944.163 492.406 944.102V943.475C519.759 943.635 575.56 940.991 599.065 948.626Z" fill="#0CB594"/>
<path d="M799.93 954.098C817.583 952.414 836.417 953.557 854.157 953.594C882.247 953.643 912.305 951.823 940.003 956.864C934.987 958.561 930.205 959.938 924.98 960.799C904.523 963.27 806.175 965.582 791.631 958.119C790.291 957.43 790.353 957.332 789.886 955.942C792.566 953.864 796.647 954.258 799.917 954.098H799.93Z" fill="#13B49A"/>
<path d="M666.508 973.438C684.358 972.455 702.688 973.008 720.551 973.672C715.867 975.356 711.097 976.721 706.327 978.098C687.702 980.213 671.573 982.438 653.514 975.897C657.767 974.668 662.144 974.09 666.508 973.438Z" fill="#13B49A"/>
<path d="M982.613 941.165C989.571 940.132 1019.12 939.419 1024.29 942.8L1023.98 944.435C1021.63 947.005 1019.64 947.263 1016.41 947.779L1015.89 947.804C1007.99 948.099 978.211 947.558 973.417 943.181C975.913 941.275 979.564 941.435 982.613 941.165Z" fill="#13B49A"/>
<path d="M526.987 944.385C522.758 947.274 520.275 949.106 519.206 954.418C499.167 953.901 390.75 956.495 379.514 950.913V949.782C391.992 940.942 473.437 944.127 492.406 944.102C503.937 944.164 515.468 944.102 526.987 944.385Z" fill="#D2D955"/>
<path d="M574.564 994.66C571.995 996.394 567.557 996.406 564.496 996.812C547.26 999.098 500.951 999.037 485.092 993.885C483.162 993.258 482.104 993.074 481.207 991.267C484.489 987.652 491.042 987.554 495.541 987.308C513.207 986.976 560.451 984.16 574.294 993.246L574.564 994.66Z" fill="#007C87"/>
<path d="M797.791 909.775L785.669 909.603C772.638 911.288 757.898 909.775 744.646 909.579C736.188 909.296 727.656 909.529 719.198 909.529L694.328 909.677L694.156 924.615C675.076 924.775 655.997 924.615 636.917 924.148C637.999 919.23 639.425 914.361 640.716 909.48L622.521 909.64C616.903 909.898 611.162 909.566 605.532 909.48C598.893 909.357 593.545 909.345 586.87 909.702L583.526 908.706C572.314 908.558 548.367 909.824 538.421 908.693C532.496 908.681 526.607 908.804 520.743 908.066C515.666 905.693 503.36 907.083 497.373 906.984C482.743 906.751 366.286 907.919 362.316 905.755L361.75 902.669C364.946 894.825 365.635 891.862 370.417 884.669C388.845 865.403 395.975 865.194 419.272 875.214C413.248 866.042 403.29 850.772 408.416 838.993C410.678 833.78 417.76 834.948 421.866 837.579C433.852 845.264 438.905 861.173 442.494 874.243C442.113 858.382 441.13 842.215 453.743 830.153C457.984 826.108 463.221 825.395 466.909 830.535C473.167 839.227 471.052 849.801 469.983 859.686C471.286 857.694 472.613 855.715 473.966 853.747C484.882 837.948 497.496 842.338 504.429 857.805C506.949 863.436 507.171 866.46 507.958 872.497C517.915 854.215 519.563 833.092 531.487 815.522C533.811 812.08 535.507 807.641 538.237 804.629C543.67 800.51 550.211 786.347 555.472 782.338C577.097 765.875 596.459 745.183 617.137 728.155C668.401 689.708 682.981 599.181 696.234 539.784C700.795 573.657 704.384 582.644 716.702 613.468L718.288 618.496C717.649 624.496 721.964 636.545 723.206 643.012C734.577 702.385 765.52 754.158 782.867 811.072C792.333 843.137 797.348 876.345 797.791 909.775Z" fill="url(#paint3_linear_80_2247)"/>
<path d="M797.791 909.775L785.669 909.603C772.638 911.288 757.898 909.775 744.646 909.579C736.188 909.296 727.656 909.529 719.198 909.529L694.328 909.677L694.156 924.615C675.076 924.775 655.997 924.615 636.917 924.148C637.999 919.23 639.425 914.361 640.716 909.48L622.521 909.64C616.903 909.898 611.162 909.566 605.532 909.48C598.893 909.357 593.545 909.345 586.87 909.702L583.526 908.706C572.314 908.558 548.367 909.824 538.421 908.693C532.496 908.681 526.607 908.804 520.743 908.066C515.666 905.693 503.36 907.083 497.373 906.984C482.743 906.751 366.286 907.919 362.316 905.755L361.75 902.669C364.946 894.825 365.635 891.862 370.417 884.669C388.845 865.403 395.975 865.194 419.272 875.214C413.248 866.042 403.29 850.772 408.416 838.993C410.678 833.78 417.76 834.948 421.866 837.579C433.852 845.264 438.905 861.173 442.494 874.243C442.113 858.382 441.13 842.215 453.743 830.153C457.984 826.108 463.221 825.395 466.909 830.535C473.167 839.227 471.052 849.801 469.983 859.686C471.286 857.694 472.613 855.715 473.966 853.747C484.882 837.948 497.496 842.338 504.429 857.805C506.949 863.436 507.171 866.46 507.958 872.497C517.915 854.215 519.563 833.092 531.487 815.522C533.811 812.08 535.507 807.641 538.237 804.629C543.67 800.51 550.211 786.347 555.472 782.338C577.097 765.875 596.459 745.183 617.137 728.155C668.401 689.708 682.981 599.181 696.234 539.784C700.795 573.657 704.384 582.644 716.702 613.468L718.288 618.496C717.649 624.496 721.964 636.545 723.206 643.012C734.577 702.385 765.52 754.158 782.867 811.072C792.333 843.137 797.348 876.345 797.791 909.775Z" fill="url(#paint4_linear_80_2247)"/>
<path d="M716.703 613.467L718.288 618.484C717.649 624.496 721.964 636.533 723.206 643.012C734.577 702.372 765.52 754.146 782.867 811.059C792.333 843.124 797.348 876.333 797.779 909.763L785.657 909.591C772.626 911.263 757.886 909.763 744.621 909.566C736.163 909.271 727.632 909.504 719.174 909.517L694.304 909.664L694.132 924.59C675.052 924.762 655.972 924.59 636.893 924.123C637.962 919.205 639.401 914.324 640.691 909.455L622.497 909.603C616.879 909.861 611.138 909.529 605.507 909.443C598.869 909.32 593.521 909.32 586.846 909.664L583.502 908.668C572.278 908.521 548.342 909.8 538.384 908.656C532.459 908.644 526.582 908.779 520.706 908.029C525.009 862.845 551.206 818.891 587.472 792.555C610.535 775.797 631.779 762.064 649.703 739.257C664.123 720.913 672.765 701.388 680.977 679.7C683.891 672.004 686.719 662.586 690.099 655.356L690.542 654.422C688.108 669.249 685.784 684.262 683.19 699.065C671.266 766.748 649.604 831.186 646.617 900.283C652.211 890.951 656.378 879.136 661.123 869.202C697.992 792.113 715.94 699.311 716.666 613.455H716.703V613.467Z" fill="#281633"/>
<path d="M730.127 766.22C731.147 792.961 723.586 817.194 720.12 843.444C717.243 865.255 718.362 887.607 719.185 909.529L694.315 909.677C693.762 865.403 708.896 805.072 730.114 766.22H730.127Z" fill="#004F4A"/>
<path d="M758.574 801.174C771.335 836.202 772.822 872.472 773.658 909.406C777.654 909.467 781.686 909.394 785.669 909.603C772.638 911.275 757.898 909.775 744.633 909.578C744.375 872.841 755.98 837.505 758.562 801.174H758.574Z" fill="#004F4A"/>
<path d="M589.611 819.85C599.385 808.084 613.559 797.535 625.718 788.104C607.351 828.161 593.422 865.698 586.882 909.701L583.538 908.705C571.06 879.579 578.805 848.067 589.611 819.85Z" fill="#628939"/>
<path d="M538.421 908.694C541.212 908.62 543.781 908.94 545.981 907.464C547.911 902.067 548.588 894.85 549.362 889.022C552.374 866.547 571.331 832.883 589.611 819.851C578.805 848.067 571.048 879.579 583.538 908.706C572.314 908.558 548.379 909.837 538.421 908.694Z" fill="#004F4A"/>
<path d="M625.373 847.723C623.627 868.28 624.685 889.193 622.521 909.628C616.903 909.886 611.162 909.554 605.531 909.468C607.019 893.484 616.878 861.923 625.361 847.723H625.373Z" fill="#004F4A"/>
<path d="M912.467 0C909.603 27.7496 884.315 41.0036 858.277 39.1593C849.45 38.5323 836.517 29.6308 829.104 24.6267C832.018 30.4053 838.62 43.2658 842.701 48.0363C840.894 49.6346 839.148 48.8846 838.349 49.3641C838.263 49.4133 834.305 53.1264 833.948 53.4583C812.41 56.8025 808.193 55.2534 790.232 42.8232C800.387 60.1222 802.268 63.7861 820.216 73.1056C804.443 87.1095 787.982 85.1423 769.05 80.4211C762.117 78.1342 755.454 73.0195 749.59 68.6917C735.501 56.9378 725.506 46.0199 712.524 33.0979C713.41 39.6019 715.057 48.7985 710.545 53.8763C696.346 69.8597 664.555 46.9174 653.097 38.9503C658.568 51.1469 677.93 87.6382 646.028 73.5359C630.01 66.4663 616.081 52.3026 600.886 43.0568C607.832 54.6632 628.67 86.7776 627.477 99.6995C622.056 107.667 601.218 100.585 593.756 98.2241C588.495 95.3963 580.639 90.0726 574.861 92.3349L574.111 95.802C571.21 96.134 567.89 96.6012 565.026 96.7241C558.523 95.2979 549.61 97.093 544.275 95.8389C521.605 90.5275 496.711 79.3268 480.397 62.532C485.659 77.7654 493.256 93.6996 493.613 109.609C471.251 112.277 456.966 109.806 440.652 93.9209C444.893 102.749 449.27 113.999 448.508 123.896L447.61 125.322C442.312 123.859 439.128 126.06 429.526 122.974C430.227 129.699 448.016 165.723 452.355 172.867C448.901 177.539 448.68 178.141 442.975 179.026C442.152 179.149 441.316 179.272 440.492 179.371C457.445 221.862 439.828 228.71 404.767 206.469C400.882 203.997 399.038 202.411 395.793 199.141C398.632 212.124 398.214 219.636 400.059 231.513C375.189 222.083 368.894 216.919 353.49 195.096C357.892 224.431 360.141 245.763 370.505 274.017C383.573 314.393 410.397 353.528 457.15 354.315C463.985 354.266 466.137 353.811 472.898 352.348C488.953 346.213 495.42 341.43 507.517 330.045C513.663 321.992 517.413 315.832 522.576 307.127C525.625 301.73 528.108 297.254 531.698 292.152C536.542 282.955 541.631 269.369 545.639 259.46L556.175 263.628C557.367 264.058 559.211 264.648 560.281 265.226C555.806 281.714 551.675 290.984 543.869 306.463C542.59 308.996 536.161 321.856 535.46 323.91C530.641 331.348 520.376 342.18 517.979 346.176C510.049 354.463 500.768 361.335 490.527 366.499C472.123 375.487 450.942 376.938 431.493 370.52C400.452 359.983 378.668 332.86 364.764 304.361C363.51 300.758 357.326 288.808 355.421 285.279L352.433 277.201C346.631 261.292 344.233 253.165 340.693 236.53C323.224 234.169 317.089 215.358 312.75 200.862C307.426 206.087 288.961 220.989 281.561 218.358C278.905 215.37 277.16 209.026 275.77 205.006C261.436 222.759 257.822 228.083 234.169 226.423C228.539 224.481 227.112 223.817 222.06 220.731C219.466 233.161 199.968 276.882 193.268 286.472C183.802 292.705 173.217 297.771 162.94 302.529C160.592 312.389 145.926 300.758 140 307.238L139.558 307.127C133.718 296.615 144.807 332.492 140 321.512C135.562 310.926 106.857 290.824 101.939 280.324C91.5266 258.12 81.3475 258.415 69.7301 236.8C69.017 236.481 68.3163 236.161 67.6033 235.829C74.9794 234.022 85.7117 233.407 90.5308 226.595C90.7644 224.493 91.0717 222.723 89.6088 220.878C80.6099 209.444 73.3567 200.112 67.5664 186.489C82.6998 190.707 86.7567 189.084 101.939 185.334C98.1159 169.252 73.9959 121.978 77.2046 112.56C88.6376 118.769 96.9972 124.203 110.496 121.289C138.771 115.179 111.639 75.7613 109.057 63.1959C123.096 69.0975 155.343 78.0973 168.472 63.0238C178.172 51.8846 154.888 38.7536 146.762 33.8848C162.141 36.1471 173.537 34.561 187.81 28.8439C200.312 22.2169 209.078 13.6105 213.762 0H912.467Z" fill="#076B3E"/>
<path d="M560.279 265.226C555.804 281.714 551.674 290.984 543.867 306.463C542.589 308.996 536.159 321.856 535.458 323.91C530.639 331.348 520.374 342.18 517.977 346.176C510.047 354.463 500.766 361.335 490.525 366.499C472.122 375.487 450.94 376.938 431.491 370.52C400.45 359.983 378.666 332.86 364.762 304.361C363.508 300.758 357.324 288.808 355.419 285.279L352.431 277.201C346.629 261.292 344.232 253.165 340.691 236.53C337.335 220.755 336.13 203.063 334.766 186.907C335.184 186.6 335.602 186.28 336.02 185.973C346.432 177.969 347.711 171.428 349.321 159.281C363.508 166.363 374.13 164.211 382.674 150.576C383.227 142.068 381.616 134.002 382.317 124.093C388.784 128.47 397.967 134.396 406.093 133.338C414.994 127.523 405.392 113.667 401.643 106.695C412.227 116.236 416.604 117.785 429.525 122.974C430.225 129.699 448.014 165.723 452.354 172.867C448.899 177.539 448.678 178.141 442.974 179.026C442.15 179.149 441.314 179.272 440.49 179.371C457.443 221.862 439.827 228.71 404.765 206.469C400.88 203.997 399.036 202.411 395.791 199.141C398.631 212.124 398.213 219.636 400.057 231.513C375.187 222.083 368.893 216.919 353.489 195.096C357.89 224.431 360.14 245.763 370.503 274.017C383.571 314.393 410.396 353.528 457.148 354.315C463.983 354.266 466.135 353.811 472.896 352.348C488.952 346.213 495.418 341.43 507.515 330.045C513.662 321.992 517.411 315.832 522.575 307.127C525.623 301.73 528.107 297.254 531.696 292.152C536.54 282.955 541.63 269.369 545.637 259.46L556.173 263.628C557.365 264.058 559.209 264.648 560.279 265.226Z" fill="url(#paint5_linear_80_2247)"/>
<path d="M560.279 265.226C555.804 281.714 551.674 290.984 543.867 306.463C542.589 308.996 536.159 321.856 535.458 323.91C530.639 331.348 520.374 342.18 517.977 346.176C510.047 354.463 500.766 361.335 490.525 366.499C472.122 375.487 450.94 376.938 431.491 370.52C400.45 359.983 378.666 332.86 364.762 304.361C363.508 300.758 357.324 288.808 355.419 285.279L352.431 277.201C346.629 261.292 344.232 253.165 340.691 236.53C337.335 220.755 336.13 203.063 334.766 186.907C335.184 186.6 335.602 186.28 336.02 185.973C346.432 177.969 347.711 171.428 349.321 159.281C363.508 166.363 374.13 164.211 382.674 150.576C383.227 142.068 381.616 134.002 382.317 124.093C388.784 128.47 397.967 134.396 406.093 133.338C414.994 127.523 405.392 113.667 401.643 106.695C412.227 116.236 416.604 117.785 429.525 122.974C430.225 129.699 448.014 165.723 452.354 172.867C448.899 177.539 448.678 178.141 442.974 179.026C442.15 179.149 441.314 179.272 440.49 179.371C457.443 221.862 439.827 228.71 404.765 206.469C400.88 203.997 399.036 202.411 395.791 199.141C398.631 212.124 398.213 219.636 400.057 231.513C375.187 222.083 368.893 216.919 353.489 195.096C357.89 224.431 360.14 245.763 370.503 274.017C383.571 314.393 410.396 353.528 457.148 354.315C463.983 354.266 466.135 353.811 472.896 352.348C488.952 346.213 495.418 341.43 507.515 330.045C513.662 321.992 517.411 315.832 522.575 307.127C525.623 301.73 528.107 297.254 531.696 292.152C536.54 282.955 541.63 269.369 545.637 259.46L556.173 263.628C557.365 264.058 559.209 264.648 560.279 265.226Z" fill="#004F4A"/>
<path d="M556.173 263.628C547.739 284.615 533.38 326.553 507.515 330.045C513.661 321.992 517.411 315.832 522.574 307.127C525.623 301.73 528.106 297.255 531.696 292.152C536.54 282.956 541.629 269.37 545.637 259.46L556.173 263.628Z" fill="#DC8B01"/>
<path d="M222.059 220.731C219.465 233.161 199.968 276.882 193.268 286.472C183.802 292.705 147.99 314.295 137.713 319.053C143.638 312.574 135.365 328.914 137.713 319.053L134.591 317.336C117.006 307.667 121.438 286.945 110.151 270.353C105.713 259.767 89.6081 290.16 67.5654 275.406C74.4007 259.226 81.3468 258.415 69.7294 236.8C69.0164 236.48 68.3156 236.161 67.6026 235.829C74.9787 234.021 85.711 233.407 90.5301 226.595C90.7637 224.493 91.071 222.722 89.6081 220.878C80.6092 209.444 73.356 200.112 67.5657 186.489C82.6991 190.706 86.756 189.083 101.939 185.334C98.1152 169.252 73.9953 121.978 77.2039 112.56C88.6369 118.769 96.9965 124.203 110.495 121.289C138.77 115.179 111.638 75.7612 109.057 63.1958C123.096 69.0973 155.342 78.0972 168.471 63.0236C178.171 51.8844 154.887 38.7535 146.761 33.8847C162.14 36.1469 173.536 34.5609 187.809 28.8438C189.936 43.1182 191.743 57.0852 196.427 70.7694C200.41 82.4127 220.608 113.593 196.624 115.461C186.875 116.211 179.216 112.609 171.791 106.794C176.057 117.638 180.298 126.404 181.49 138.047C174.004 155.432 160.985 152.051 145.642 147.195C150.633 161.752 159.571 185.42 169.602 197.715C172.86 201.71 180.077 204.686 179.4 208.743C174.249 214.054 160.161 214.792 153.166 215.063C146.933 215.309 137.295 209.899 131.431 207.022C128.48 217.067 126.956 227.456 123.797 237.218C120.17 248.406 114.33 259.287 110.151 270.353C125.014 268.841 131.701 265.41 145.126 259.226C148.642 257.603 153.682 255.021 157.333 254.283C161.353 250.029 178.724 241.411 184.785 237.403C199.156 227.886 201.455 217.915 204.885 202.19C210.22 209.001 214.904 215.788 222.059 220.731Z" fill="#CFCC0D"/>
<path d="M222.06 220.731C219.466 233.161 199.968 276.882 193.268 286.472C183.802 292.706 173.217 297.771 162.94 302.529C156.019 304.89 146.848 306.119 139.496 307.373C146.098 288.845 151.679 272.997 157.334 254.284C161.354 250.03 178.725 241.411 184.786 237.403C199.157 227.887 201.456 217.916 204.886 202.19C210.221 209.002 214.905 215.789 222.06 220.731Z" fill="#47A93A"/>
<path d="M333.882 90.1464C330.575 99.22 326.678 109.744 317.605 114.908C312.811 117.626 307.648 114.429 306.013 117.429C307.918 130.646 307.242 135.687 291.494 137.101C277.516 138.355 263.858 130.179 252.843 122.052C256.359 136.83 258.387 145.252 269.501 156.035C254.503 160.326 244.815 161.9 230.149 153.736C228.022 152.568 225.945 151.301 223.928 149.937C226.953 162.17 229.817 172.141 238.14 182.075C240.34 185.309 243.401 187.116 246.585 189.194C247.68 189.895 249.241 190.227 248.134 191.26C238.496 200.137 219.171 198.711 209.225 190.768C207.553 189.428 204.886 187.694 202.992 187.436C201.517 190.633 203.767 198.735 204.886 202.19C201.456 217.915 199.157 227.886 184.786 237.403C178.725 241.411 161.354 250.03 157.334 254.284C153.683 255.021 148.643 257.603 145.127 259.226C131.702 265.41 125.014 268.841 110.151 270.353C114.331 259.288 120.171 248.407 123.797 237.218C126.957 227.456 128.481 217.067 131.432 207.022C137.296 209.899 146.934 215.309 153.167 215.063C160.162 214.792 174.25 214.055 179.401 208.743C180.077 204.686 172.861 201.71 169.603 197.715C159.572 185.42 150.634 161.752 145.643 147.195C160.985 152.051 174.004 155.432 181.491 138.047C180.299 126.404 176.057 117.638 171.791 106.794C179.217 112.609 186.876 116.212 196.624 115.462C220.609 113.593 200.411 82.4129 196.428 70.7696C191.744 57.0853 189.937 43.1183 187.81 28.8439C200.312 22.2169 209.078 13.6105 213.762 0H309.295C303.542 38.1143 281.29 62.1877 242.516 65.7409C265.124 98.8635 297.579 112.843 333.882 90.1464Z" fill="#92BB07"/>
<path d="M408.884 32.8154C414.797 36.7375 420.268 41.0161 426.427 44.5817C433.852 48.8972 444.941 52.4381 451.149 58.0692C444.855 59.5938 437.38 58.9667 431.381 56.6061C420.452 52.3275 413.543 43.2046 408.896 32.8154H408.884Z" fill="#92BB07"/>
<path d="M354.067 67.9912C366.557 73.7821 374.487 75.9091 388.096 73.2534C388.378 75.3928 387.161 76.487 386.055 78.2944C383.867 79.9419 381.555 81.7 378.875 82.45C371.635 84.4541 365.107 80.9009 358.874 77.655C356.919 74.5813 355.518 71.3231 354.055 67.9912H354.067Z" fill="#92BB07"/>
<path d="M519.169 37.733C532.102 38.4092 544.949 41.2739 558.041 41.8395L558.656 43.3026L557.267 46.2534C555.103 47.4829 552.939 48.3189 550.481 48.7984C539.478 50.95 527.701 43.7944 519.181 37.7207L519.169 37.733Z" fill="#92BB07"/>
<path d="M1165.48 77.1998C1151.72 72.9458 1145.87 68.6917 1134.16 60.8476C1138.32 67.3024 1154.01 89.3349 1144.36 95.8635C1128.23 96.0848 1105.52 54.7739 1095.63 43.7207C1107.44 74.3843 1107.75 80.0153 1113.59 111.65C1092.97 106.548 1091.08 101.15 1074.75 92.4455C1075.66 95.052 1079.15 105.687 1080.25 107.642C1082.56 119.371 1082.87 132.367 1083.37 144.33C1068.24 141.871 1054.42 124.535 1045.88 113.384C1040.11 128.507 1034.84 142.265 1029.88 157.695C1039.8 176.776 1064.27 203.936 1085.28 213.6C1085.46 213.624 1085.67 213.637 1085.88 213.661C1089.35 218.395 1105.25 222.87 1111.14 224.124C1140.17 227.063 1139.04 226.116 1165.48 215.223V237.39C1151.75 250.042 1132.12 253.214 1114.03 252.489L1112.81 252.439C1103.89 251.345 1096.14 248.271 1087.76 245.21C1071.48 237.649 1060.74 230.382 1047.52 217.952C1054.75 231.39 1073.52 258.39 1086.31 266.492L1087.74 266.579C1089.97 273.427 1108.67 285.808 1115.6 289.263C1131.65 299.123 1146.84 302.652 1165.48 302.135V322.213C1143.41 324.451 1136.17 319.029 1116.44 312.881C1105.16 306.537 1097.95 301.865 1087.56 294.193C1079.13 286.349 1071.08 279.021 1063.33 270.451C1057.16 262.447 1050.76 254.468 1044.5 246.513C1043.75 257.345 1040.9 284.431 1037.43 293.775C1035.13 281.394 1033.32 268.927 1031.98 256.411C1029.61 235.103 1031.6 226.632 1018.35 208.387C1005.68 194.997 997.759 174.44 991.427 157.732C991.341 154.953 986.547 137.383 985.539 133.277C973.159 130.24 969.459 127.793 959.083 121.117L947.785 112.117C939.561 103.671 935.27 99.1708 929.283 88.671C931.828 121.019 940.557 148.547 897.984 155.162C896.914 211.276 895.956 246.734 889.329 303.709C887.571 311.787 886.047 321.77 884.461 330.094C882.138 344.135 875.659 364.188 870.827 377.848C869.561 381.573 868.307 385.446 866.894 389.11L858.472 406.138C848.269 423.142 837.967 435.302 819.944 444.744C818.592 445.261 817.227 445.752 815.851 446.207C803.877 450.203 788.657 449.797 777.187 444.007C776.179 437.023 776.29 430.138 776.216 423.093C792.37 432.572 804.516 431.539 820.51 422.675C837.758 410.503 850.9 387.843 857.009 367.827C860.931 355.987 864.398 344.012 867.422 331.914L871.688 311.184L873.741 299.824C878.99 261.574 882.125 226.128 881.302 187.645C881.277 186.772 881.843 183.76 881.892 182.321C881.978 179.899 887.633 164.74 888.678 159.207C893.239 135.011 897.873 110.63 900.221 86.1136C895.931 83.7899 889.612 81.1465 885.051 79.0686C884.117 86.6177 884.203 95.3102 883.183 103.425C881.191 119.273 878.068 132.392 873.655 147.674C857.919 148.178 852.018 145.584 840.29 134.58C839.307 133.658 838.336 132.711 837.401 131.74C839.307 137.949 847.052 159.207 844.679 165.133C844.31 166.092 843.191 166.326 842.048 166.854C831.783 167.248 812.408 154.732 804.995 147.859C802.819 145.83 800.668 143.765 798.541 141.687C800.299 152.629 800.643 162.145 800.828 173.223C789.161 164.863 778.761 160.117 768.815 149.715C768.078 129.023 768.987 101.63 769.049 80.4211C787.981 85.1423 804.442 87.1095 820.215 73.1056C802.266 63.7861 800.385 60.1222 790.231 42.8232C808.192 55.2534 812.408 56.8025 833.947 53.4583C834.303 53.1264 838.262 49.4133 838.348 49.3641C839.147 48.8846 840.893 49.6346 842.7 48.0363C838.618 43.2658 832.017 30.4053 829.103 24.6267C836.516 29.6308 849.449 38.5323 858.276 39.1593C884.314 41.0036 909.601 27.7496 912.466 0H1165.48V77.1998Z" fill="#004F4A"/>
<path d="M1045.88 113.383C1040.11 128.506 1034.84 142.264 1029.88 157.694C1021.33 145.781 1016.04 135.809 1014.69 121.055C1021.15 109.252 1027.15 97.1787 1032.64 84.8838C1036.54 98.7648 1039.94 100.953 1045.58 112.756L1045.88 113.383Z" fill="#006F65"/>
<path d="M957.3 34.6963C961.873 37.4626 990.849 58.3763 991.857 61.3763L990.308 62.7533C987.628 63.823 984.702 65.0402 981.887 65.6303C977.953 66.4541 973.749 65.0279 970.528 62.741C961.934 56.6427 959.267 44.3847 957.3 34.6963Z" fill="#076B3E"/>
<path d="M748.198 587.316C740.773 583.763 731.602 562.91 728.393 554.501C723.955 542.857 721.964 527.808 717.944 516.866C716.161 540.263 715.94 563.747 717.28 587.168C717.649 593.562 719.898 614.094 718.288 618.496L716.702 613.467C704.384 582.644 700.794 573.656 696.233 539.784C682.981 599.18 668.401 689.708 617.136 728.154C617.444 725.068 630.082 704.88 632.528 699.495C639.757 683.622 645.731 668.278 651.78 651.926L655.21 641.291C661.381 624.311 668.978 590.931 672.396 573.029C674.511 555.57 678.949 535.087 680.03 517.886C682.083 504.534 682.587 486.645 684.1 472.555C684.554 456.621 686.509 440.539 687.505 424.519C672.937 416.306 657.508 398.097 648.866 383.81C639.671 365.995 628.951 343.163 623.689 323.885C618.12 309.303 612.735 284.578 610.104 269.541L624.869 267.722C627.045 279.611 636.868 324.524 643.199 333.315C651.054 356.417 669.605 383.282 688.759 398.909C689.779 377.319 689.435 356.417 691.156 334.717C692.582 328.852 692.459 287.787 692.73 278.308C697.881 281.062 710.432 287.344 714.772 290.295C714.772 314.209 713.727 341.786 714.674 365.294C718.362 440.244 729.61 514.616 748.198 587.316Z" fill="#DC8B01"/>
<path d="M688.759 398.909C688.439 407.453 688.033 415.986 687.505 424.519C672.937 416.306 657.508 398.097 648.866 383.81C639.671 365.995 628.951 343.163 623.689 323.885C618.12 309.303 612.735 284.578 610.104 269.541L624.869 267.722C627.045 279.611 636.868 324.524 643.199 333.315C651.054 356.417 669.605 383.282 688.759 398.909Z" fill="#008E7D"/>
<path d="M688.759 398.909C688.439 407.453 688.033 415.986 687.505 424.519C672.937 416.306 657.508 398.097 648.866 383.81C639.671 365.995 628.951 343.163 623.689 323.885C618.12 309.303 612.735 284.578 610.104 269.541L624.869 267.722C627.045 279.611 636.868 324.524 643.199 333.315C651.054 356.417 669.605 383.282 688.759 398.909Z" fill="#004F4A"/>
<path d="M653.095 38.95C664.553 46.9171 696.344 69.8595 710.543 53.8761C715.055 48.7983 713.395 39.6017 712.523 33.0977C725.505 46.0196 735.487 56.9375 749.588 68.6915C749.01 84.933 747.289 109.879 751.678 125.076C739.962 114.515 727.275 103.154 716.346 91.8059C709.72 84.9208 703.327 75.5397 697.057 68.2488C696.873 88.5478 695.975 112.756 696.713 132.723C695.471 152.506 695.68 191.604 692.275 208.03C671.487 196.313 634.569 166.338 622.005 146.445C612.318 131.088 610.056 114.109 593.767 98.2239C601.229 100.572 622.066 107.666 627.488 99.687C628.693 86.7773 607.843 54.6629 600.897 43.0442C616.092 52.29 630.02 66.4538 646.039 73.5234C677.941 87.6256 658.591 51.122 653.108 38.9254V38.95H653.095Z" fill="#004F4A"/>
<path d="M717.944 516.866C721.951 527.796 723.943 542.858 728.393 554.501C731.59 562.911 740.773 583.751 748.198 587.304C754.554 607.959 766.897 646.246 776.965 664.885C750.448 640.91 750.202 632.881 740.023 602.439C739.753 642.766 747.928 686.88 767.475 722.191C804.355 788.793 820.485 847.882 820.14 924.541C812.69 925.021 805.056 924.689 797.594 924.652L797.791 909.763C797.36 876.333 792.332 843.124 782.878 811.059C765.52 754.146 734.577 702.372 723.218 643.012C721.988 636.545 717.661 624.496 718.3 618.484C719.899 614.082 717.661 593.55 717.292 587.156C715.952 563.734 716.174 540.251 717.968 516.866H717.944Z" fill="#8D1A55"/>
<path d="M563.574 103.376C564.176 116.728 564.705 130.917 564.385 144.293C543.597 142.068 551.502 139.843 538.224 127.548C536.466 136.154 535.065 143.998 532.274 152.334C520.485 147.478 516.588 144.552 508.031 134.888C507.921 146.679 513.158 168.687 510.035 175.227C499.918 183.871 482.879 167.605 473.228 165.453C469.995 163.019 448.789 129.134 447.609 125.322L448.506 123.896C449.268 113.999 444.892 102.749 440.65 93.9212C456.964 109.806 471.249 112.277 493.611 109.609C493.255 93.6999 485.657 77.7656 480.396 62.5322C496.709 79.3271 521.604 90.5278 544.273 95.8392C549.608 97.0932 558.521 95.2982 565.025 96.7244C562.984 98.9621 563.389 99.5768 563.574 103.376Z" fill="#004F4A"/>
<path d="M576.617 165.784C575.351 187.005 569.413 222.304 562.098 241.632C559.283 240.759 554.267 238.484 551.354 237.267C559.098 210.968 563.918 171.575 564.385 144.293C564.704 130.916 564.176 116.728 563.573 103.375C563.389 99.5763 562.983 98.9616 565.024 96.7239C567.888 96.6009 571.208 96.1337 574.109 95.8018C575.363 120.33 576.027 141.379 576.617 165.784Z" fill="#008E7D"/>
<path d="M576.617 165.784C575.351 187.005 569.413 222.304 562.098 241.632C559.283 240.759 554.267 238.484 551.354 237.267C559.098 210.968 563.918 171.575 564.385 144.293C564.704 130.916 564.176 116.728 563.573 103.375C563.389 99.5763 562.983 98.9616 565.024 96.7239C567.888 96.6009 571.208 96.1337 574.109 95.8018C575.363 120.33 576.027 141.379 576.617 165.784Z" fill="#D35F04"/>
<path d="M567.766 243.328L562.099 241.632C569.413 222.304 575.351 187.005 576.617 165.784C578.117 163.805 577.207 151.387 577.281 147.379C581.719 171.821 576.138 219.181 567.766 243.328Z" fill="#008E7D"/>
<path d="M567.766 243.328L562.099 241.632C569.413 222.304 575.351 187.005 576.617 165.784C578.117 163.805 577.207 151.387 577.281 147.379C581.719 171.821 576.138 219.181 567.766 243.328Z" fill="#04353C"/>
<path d="M696.713 132.724C720.341 175.977 713.002 176.752 716.641 221.837C709.695 217.915 698.422 212.186 692.263 208.042C695.668 191.616 695.459 152.518 696.701 132.736H696.713V132.724Z" fill="#DC8B01"/>
<path d="M623.185 246.944C617.998 248.333 612.515 248.493 607.155 248.259C604.438 231.698 602.876 205.165 603.516 188.776C606.22 197.801 612.711 197.727 617.26 204.416C617.518 209.924 621.169 244.423 623.185 246.944Z" fill="#04353C"/>
<path d="M815.58 737.523C821.997 740.327 849.781 766.54 856.542 773.154C864.09 780.543 871.725 787.994 878.228 796.342C896.828 820.219 910.634 853.194 910.966 883.612C907.77 878.755 905.544 872.645 902.987 867.395C897.468 856.046 891.505 844.6 884.252 834.235C872.696 817.711 858.104 805.932 844.802 791.228C831.648 776.683 821.764 756.015 815.58 737.523Z" fill="#8D1A55"/>
<path d="M739.04 411.179L739.876 411.978C745.199 425.588 745.15 448.654 743.724 463.272L743.281 463.408L742.421 462.67C739.839 445.592 738.241 428.453 739.052 411.179H739.04Z" fill="#DC8B01"/>
<path d="M726.955 354.93C727.091 355.065 727.238 355.188 727.361 355.335C731.627 361.077 730.336 388.999 729.881 396.745L729.131 395.995C725.271 383.491 726.537 367.889 726.955 354.942V354.93Z" fill="#DC8B01"/>
</g>
<defs>
<linearGradient id="paint0_linear_80_2247" x1="603.591" y1="1141.81" x2="875.936" y2="723.487" gradientUnits="userSpaceOnUse">
<stop stop-color="#006986"/>
<stop offset="1" stop-color="#017785"/>
</linearGradient>
<linearGradient id="paint1_linear_80_2247" x1="603.591" y1="1141.81" x2="875.936" y2="723.487" gradientUnits="userSpaceOnUse">
<stop stop-color="#006986"/>
<stop offset="1" stop-color="#017785"/>
</linearGradient>
<linearGradient id="paint2_linear_80_2247" x1="159.653" y1="139.83" x2="233.33" y2="-65.3793" gradientUnits="userSpaceOnUse">
<stop stop-color="#056D37"/>
<stop offset="1" stop-color="#004350"/>
</linearGradient>
<linearGradient id="paint3_linear_80_2247" x1="450.055" y1="998.741" x2="639.051" y2="824.42" gradientUnits="userSpaceOnUse">
<stop stop-color="#00907E"/>
<stop offset="1" stop-color="#03AF92"/>
</linearGradient>
<linearGradient id="paint4_linear_80_2247" x1="512.9" y1="716.966" x2="825.373" y2="827.771" gradientUnits="userSpaceOnUse">
<stop stop-color="#004D4C"/>
<stop offset="1" stop-color="#016A67"/>
</linearGradient>
<linearGradient id="paint5_linear_80_2247" x1="439.138" y1="301.422" x2="457.558" y2="135.97" gradientUnits="userSpaceOnUse">
<stop stop-color="#008477"/>
<stop offset="1" stop-color="#009C84"/>
</linearGradient>
<clipPath id="clip0_80_2247">
<rect width="1340" height="1075" fill="white"/>
</clipPath>
</defs>
</svg>
